<?xml version="1.0" encoding="UTF-8"?>
<svg id="Layer_1" data-name="Layer 1" xmlns="http://www.w3.org/2000/svg" viewBox="0 0 119.77 193.53">
  <defs>
    <style>
      .cls-1 {
        fill: #fff;
        stroke-width: 0px;
      }
    </style>
  </defs>
  <path class="cls-1" d="M15.44,193.53c-12.88.14-18.1-9.2-13.24-20.43,8.41-19.44,16.44-39.09,26.01-57.96,6.45-12.72,6.54-23.73.03-36.46C18.9,60.39,11.27,41.22,2.88,22.45-.16,15.66-2.33,8.68,4.62,3.2,11.59-2.29,18.55-.14,24.63,5.29c29.77,26.59,59.59,53.13,89.15,79.94,7.94,7.2,7.98,16.04.08,23.21-29.56,26.82-59.35,53.39-89.22,79.87-3.06,2.71-7.25,4.14-9.21,5.22Z"/>
</svg>