<?xml version="1.0" encoding="UTF-8"?>
<svg id="Layer_1" data-name="Layer 1" xmlns="http://www.w3.org/2000/svg" viewBox="0 0 119.77 193.53">
  <defs>
    <style>
      .cls-1 {
        fill: #fff;
        stroke-width: 0px;
      }
    </style>
  </defs>
  <path class="cls-1" d="M104.33,193.53c12.88.14,18.1-9.2,13.24-20.43-8.41-19.44-16.44-39.09-26.01-57.96-6.45-12.72-6.54-23.73-.03-36.46,9.34-18.29,16.97-37.45,25.36-56.23,3.03-6.78,5.21-13.77-1.74-19.25-6.97-5.49-13.93-3.34-20.01,2.09C65.36,31.88,35.55,58.42,5.98,85.23c-7.94,7.2-7.98,16.04-.08,23.21,29.56,26.82,59.35,53.39,89.22,79.87,3.06,2.71,7.25,4.14,9.21,5.22Z"/>
</svg>