<?xml version="1.0" encoding="UTF-8"?>
<svg xmlns="http://www.w3.org/2000/svg" onmouseup="{ if(window.parent.document.onmouseup) window.parent.document.onmouseup(arguments[0]);}" height="360" width="540" version="1.1"><path data-cppathid="10000" transform="translate(0,0)" fill="#FEFEFE" d="M0 0 C178.2 0 356.4 0 540 0 C540 118.8 540 237.6 540 360 C361.8 360 183.6 360 0 360 C0 241.2 0 122.4 0 0 Z "/><path data-cppathid="10001" transform="translate(314,32)" fill="#DC1D26" d="M0 0 C0.99 0.33 1.98 0.66 3 1 C3.55707513 10.73334052 2.36620268 18.26759463 -2 27 C7.5138826 22.71223647 14.27497563 19.25271948 19.75 10.0625 C20.36875 9.0415625 20.36875 9.0415625 21 8 C21.66 8 22.32 8 23 8 C22.88285618 13.62290325 21.38808445 16.8714728 17.5234375 20.96484375 C12.02932165 25.39585668 5.37244128 28.06224935 -1 31 C-3.92737958 32.37438967 -6.84055055 33.77563545 -9.75 35.1875 C-10.75051392 35.6505957 -10.75051392 35.6505957 -11.77124023 36.12304688 C-17.31975393 38.80857027 -20.65638129 42.3287672 -23 48 C-23.3332875 50.86798151 -23.3332875 50.86798151 -23.34375 54.015625 C-23.38822266 55.76939453 -23.38822266 55.76939453 -23.43359375 57.55859375 C-23.46646484 59.38583984 -23.46646484 59.38583984 -23.5 61.25 C-23.76564966 75.82947853 -23.76564966 75.82947853 -26 83 C-26.33257812 84.06863281 -26.66515625 85.13726562 -27.0078125 86.23828125 C-29.87936271 94.14006452 -33.61846633 100.53765622 -39 107 C-39.41765625 107.56589844 -39.8353125 108.13179688 -40.265625 108.71484375 C-43.04722796 110.77598648 -46.28077964 110.94890634 -49.625 111.4375 C-59.68808512 113.12293174 -69.61125113 116.61125113 -77 124 C-79.3232799 123.79555137 -81.43394906 123.20135962 -83.6875 122.60546875 C-86.13388338 121.91471804 -86.13388338 121.91471804 -89.25 121.5625 C-93.89506372 118.92325925 -95.44970383 113.95957581 -97 109 C-97.1328125 106.14453125 -97.1328125 106.14453125 -97 104 C-97.66 104 -98.32 104 -99 104 C-98.71125 105.155 -98.4225 106.31 -98.125 107.5 C-97.08333333 111.66666667 -96.04166667 115.83333333 -95 120 C-97.06183633 120.08150744 -99.12461349 120.1394194 -101.1875 120.1875 C-102.91033203 120.23970703 -102.91033203 120.23970703 -104.66796875 120.29296875 C-108.27039199 119.97622579 -110.09366839 119.08533398 -113 117 C-113 117.66 -113 118.32 -113 119 C-109.89623952 121.06917365 -109.14357788 121.25217096 -105.61328125 121.30859375 C-104.75669922 121.33373047 -103.90011719 121.35886719 -103.01757812 121.38476562 C-101.23378918 121.41953985 -99.44992926 121.45086825 -97.66601562 121.47851562 C-91.80534964 121.65796843 -87.38281368 122.65011044 -82 125 C-82 129.84654291 -83.06923557 132.08408668 -85.765625 136.01953125 C-89.51875316 139.34616757 -93.71408354 139.22026617 -98.5625 139.60546875 C-103.14294934 140.13117941 -106.08302337 141.64981402 -110 144 C-109.46632812 143.7834375 -108.93265625 143.566875 -108.3828125 143.34375 C-102.43492861 141.12101138 -97.31874363 140.64382865 -91 141 C-92.51041596 144.98809336 -94.32504171 148.72779535 -96.3125 152.5 C-96.88613281 153.6034375 -97.45976562 154.706875 -98.05078125 155.84375 C-101.94568738 162.15053187 -106.92456912 166.65270522 -114.0625 168.6875 C-115.34833984 169.06455078 -115.34833984 169.06455078 -116.66015625 169.44921875 C-119 170 -119 170 -122 170 C-122 170.66 -122 171.32 -122 172 C-119.74862561 171.37996908 -117.49894474 170.75378659 -115.25 170.125 C-113.37054688 169.60292969 -113.37054688 169.60292969 -111.453125 169.0703125 C-108.75046359 168.23260975 -106.4530643 167.37520272 -104 166 C-104.39927344 168.06593758 -104.82020723 170.12769527 -105.25 172.1875 C-105.48203125 173.33605469 -105.7140625 174.48460937 -105.953125 175.66796875 C-107.46603281 180.48330593 -110.39771591 183.57783011 -114 187 C-108.43878831 183.96661181 -106.19987596 180.90742554 -104 175 C-103.44980208 173.0440464 -102.90899126 171.08544014 -102.375 169.125 C-99.91079442 160.63496378 -95.4240918 153.25831605 -90.96801758 145.6730957 C-90.27239342 144.47079751 -89.62119464 143.24238928 -89 142 C-83.82897706 143.3120506 -80.62612074 145.72940951 -76.875 149.375 C-76.36324219 149.85710937 -75.85148437 150.33921875 -75.32421875 150.8359375 C-73.87055998 152.21112112 -72.43480761 153.60515917 -71 155 C-70.22269531 155.57363281 -69.44539063 156.14726562 -68.64453125 156.73828125 C-65.94700155 160.44818551 -66.62445296 164.36363022 -66.8125 168.8125 C-67.12510718 176.61992418 -67.12510718 176.61992418 -66.3359375 184.3671875 C-65.67933447 188.23560776 -65.25060226 191.14129985 -66 195 C-69.04216355 198.2342083 -72.05433652 200.388431 -75.828125 202.65625 C-80.60702166 206.18745443 -81.90370964 210.80857303 -83.1875 216.4375 C-83.455625 217.613125 -83.72375 218.78875 -84 220 C-83.34 220 -82.68 220 -82 220 C-81.91363281 219.27554688 -81.82726562 218.55109375 -81.73828125 217.8046875 C-80.86381822 211.78774002 -79.97937335 206.93108423 -75 203 C-71.74737933 200.84320865 -68.42248007 198.87405705 -65 197 C-64.73445313 197.81984375 -64.46890625 198.6396875 -64.1953125 199.484375 C-63.34414082 201.98782112 -62.45271362 204.43100493 -61.4921875 206.890625 C-57.2904331 217.98979155 -53.71788805 230.48600663 -58.18359375 242.0703125 C-59.64090687 244.54585219 -61.22180109 246.74705946 -63 249 C-63.97706546 250.46686055 -64.93678287 251.94549282 -65.875 253.4375 C-66.28492188 254.05496094 -66.69484375 254.67242187 -67.1171875 255.30859375 C-68.23135297 257.12526687 -68.23135297 257.12526687 -68 260 C-67.70867187 259.45472656 -67.41734375 258.90945313 -67.1171875 258.34765625 C-64.88438863 254.24014889 -62.57116605 250.32181537 -59.875 246.5 C-56.95889494 242.23857843 -55.33803632 237.96481896 -54 233 C-52.96875 233.598125 -51.9375 234.19625 -50.875 234.8125 C-43.88618334 238.94527348 -43.88618334 238.94527348 -36 240 C-36.64066406 239.76925781 -37.28132813 239.53851563 -37.94140625 239.30078125 C-40.6641828 238.27416058 -43.33179201 237.16076785 -46 236 C-46.68707031 235.71898437 -47.37414062 235.43796875 -48.08203125 235.1484375 C-51.51971269 233.30602 -52.76647531 231.62619805 -54.140625 227.94140625 C-55.00988842 224.68166844 -55.77406171 221.42463456 -56.49658203 218.13085938 C-57.34594933 214.53567133 -58.47325915 211.02823701 -59.5625 207.5 C-62.84206543 196.53609717 -65.7331622 185.54051618 -65 174 C-63.0429344 175.44544692 -61.09444855 176.90038323 -59.15625 178.37109375 C-57.41342771 179.68768233 -55.64757289 180.97374752 -53.875 182.25 C-46.96731714 188.85734883 -42.94972042 197.32961304 -42.375 206.8125 C-42.26285156 208.55466797 -42.26285156 208.55466797 -42.1484375 210.33203125 C-42.09945312 211.21246094 -42.05046875 212.09289062 -42 213 C-41.67 213 -41.34 213 -41 213 C-40.48789324 202.58716245 -42.49647746 194.02401481 -48.68359375 185.51171875 C-51.00830242 182.99099755 -53.38587325 181.1589402 -56.1394043 179.14941406 C-63.54124168 173.64602486 -63.54124168 173.64602486 -64.9765625 168.49609375 C-65.34903404 152.25972065 -58.97978782 135.34139905 -50 122 C-48.85377186 124.29245628 -47.78980603 126.53045572 -46.84375 128.91796875 C-44.41371208 132.98004485 -41.41146224 134.77974796 -37.5 137.3125 C-29.21800342 142.96566333 -29.21800342 142.96566333 -27.5625 148.1875 C-27.376875 149.445625 -27.19125 150.70375 -27 152 C-26.34 152 -25.68 152 -25 152 C-27.9523614 142.8321409 -32.75224484 138.97306685 -40.6953125 133.74609375 C-45.06825502 130.43303391 -46.65303163 127.21192335 -47.5 121.8125 C-46.69089712 115.6430905 -42.44626766 112.33237261 -38.0703125 108.16015625 C-33.06896241 103.08850605 -30.35824848 97.80758919 -27.5 91.375 C-24.40462988 84.47482155 -21.80062536 78.88985186 -15 75 C-14.00613281 74.40058594 -14.00613281 74.40058594 -12.9921875 73.7890625 C-8.35786408 71.37784626 -4.04951431 70.68959213 1.125 70.125 C6.49679632 69.45715505 10.0488018 68.65032434 13.86328125 64.7109375 C16.35890601 60.95463631 16.20293315 57.36255113 15.5625 53.0625 C15.376875 52.381875 15.19125 51.70125 15 51 C15.99 51.33 16.98 51.66 18 52 C18.6875 54.0625 18.6875 54.0625 19 56 C19.66 56 20.32 56 21 56 C21.268125 55.4225 21.53625 54.845 21.8125 54.25 C23 52 23 52 24.5625 50 C27.57238215 45.81233788 27.12370116 41.23083299 27.0625 36.25 C27.05573242 35.20392578 27.05573242 35.20392578 27.04882812 34.13671875 C27.0371002 32.42444197 27.01916653 30.71220967 27 29 C30 30 30 30 31 32 C31.09632897 33.81041793 31.12981533 35.62452753 31.125 37.4375 C31.12757813 38.40558594 31.13015625 39.37367187 31.1328125 40.37109375 C31 43 31 43 30 46 C30.99 45.67 31.98 45.34 33 45 C39.05510684 44.38979543 43.67951339 45.00722628 49 48 C49.33 48.99 49.66 49.98 50 51 C47.74202176 50.49822706 45.79756729 49.90699038 43.6875 48.9375 C40.20936102 47.7241957 37.66685634 47.61401512 34 48 C25.96433282 52.01783359 20.85780502 59.85802583 16.26171875 67.3125 C15.84535156 67.869375 15.42898438 68.42625 15 69 C14.34 69 13.68 69 13 69 C13 69.66 13 70.32 13 71 C24.78136813 72.21096943 24.78136813 72.21096943 35.93359375 69.51171875 C37.78604487 67.7675981 39.38385289 65.96020084 41 64 C44.51259889 62.16386876 45.93892569 62 50 62 C49.67 62.99 49.34 63.98 49 65 C47.34676274 65.69944653 45.68811797 66.39553607 43.984375 66.9609375 C41.12578158 68.45776004 39.19984624 70.67119725 37 73 C37.7940625 73.62648438 38.588125 74.25296875 39.40625 74.8984375 C40.4271875 75.71570313 41.448125 76.53296875 42.5 77.375 C43.5209375 78.18710938 44.541875 78.99921875 45.59375 79.8359375 C46.78484375 80.90714844 46.78484375 80.90714844 48 82 C48 82.66 48 83.32 48 84 C44.59919013 83.38998926 42.56988255 82.13131396 39.875 80 C35.39759049 76.48565593 32.40134251 75.75676629 26.75 75.4375 C26.03706787 75.3964917 25.32413574 75.3554834 24.58959961 75.31323242 C5.75289504 73.80717261 5.75289504 73.80717261 -11 81 C-11.33 81.33 -11.66 81.66 -12 82 C-10.60201172 82.12955078 -10.60201172 82.12955078 -9.17578125 82.26171875 C7.26517349 84.07371477 21.71096815 89.59889019 32.4453125 102.82421875 C47.05607992 123.27195104 47.59087686 150.18349505 43.61743164 174.18920898 C36.21090977 213.15471845 14.47658063 248.72948631 -14 276 C-15.2375 277.2375 -15.2375 277.2375 -16.5 278.5 C-17.7375 279.7375 -17.7375 279.7375 -19 281 C-19.55945313 281.60585938 -20.11890625 282.21171875 -20.6953125 282.8359375 C-26.16012185 288.61049313 -32.86458362 295.23771163 -41 296.4453125 C-44.86396273 295.87175553 -46.47058536 294.45575553 -49.375 291.875 C-50.33535156 291.04613281 -51.29570312 290.21726562 -52.28515625 289.36328125 C-53.18105469 288.58339844 -54.07695312 287.80351562 -55 287 C-58.61611842 284.13399616 -62.34839197 281.44868791 -66.1484375 278.83203125 C-76.9495849 271.36586323 -86.9070013 263.09330727 -95.34375 252.9609375 C-96.53130499 251.55491721 -97.76685414 250.18890427 -99.03125 248.8515625 C-117.39549693 229.38804727 -127.76814628 205.72419277 -134.45068359 180.09912109 C-134.80646749 178.73955222 -135.17330322 177.38280804 -135.55322266 176.02978516 C-140.66150373 157.21451906 -140.46022554 134.85576705 -131.6484375 117.30859375 C-125.96469498 107.92565567 -117.40722661 101.34298204 -107 98 C-102.63396572 97.49855713 -98.38399386 97.60708155 -94 97.8125 C-91.7919545 97.89017634 -89.58359804 97.95958739 -87.375 98.01953125 C-86.41335937 98.06182861 -85.45171875 98.10412598 -84.4609375 98.14770508 C-81.74203902 98.19192053 -81.74203902 98.19192053 -79 96 C-77.6322471 87.7666639 -79.7744458 79.8673341 -82 72 C-82.29425932 70.52134692 -82.58626973 69.04224265 -82.875 67.5625 C-85.14727652 60.36695768 -91.4162719 57.28876312 -97.625 53.75 C-98.388125 53.30398437 -99.15125 52.85796875 -99.9375 52.3984375 C-104.70337243 49.6392482 -108.3207515 47.85473119 -113.9375 47.8125 C-114.79214844 47.79832031 -115.64679688 47.78414062 -116.52734375 47.76953125 C-119.16222662 48.01512065 -120.68685071 48.77823221 -123 50 C-123.99 50 -124.98 50 -126 50 C-125.05525908 47.6381477 -124.4382746 46.27392163 -122.25 44.90625 C-119.69084197 43.87547802 -117.49589377 43.59178109 -114.75 43.375 C-113.85796875 43.30023438 -112.9659375 43.22546875 -112.046875 43.1484375 C-111.37140625 43.09945312 -110.6959375 43.05046875 -110 43 C-110.66 41.906875 -111.32 40.81375 -112 39.6875 C-114.62899945 34.53132855 -114.37471046 29.66229144 -114 24 C-113.01 24 -112.02 24 -111 24 C-110.85304687 25.08667969 -110.85304687 25.08667969 -110.703125 26.1953125 C-109.39150606 34.67560738 -106.85575297 39.93492705 -100.19921875 45.421875 C-96.55922099 48.0338805 -92.67787486 50.20426757 -88.76953125 52.38671875 C-86.35966978 53.79048855 -84.18510383 55.27382012 -82 57 C-81.44765108 50.37181292 -81.97938872 45.42587347 -86 40 C-88.7386114 37.13019763 -91.5297603 34.40529644 -94.44140625 31.7109375 C-97.58659471 28.37847828 -99.71439809 25.27719926 -100.29296875 20.6640625 C-100.1953125 18.77604167 -100.09765625 16.88802083 -100 15 C-98.68 15.33 -97.36 15.66 -96 16 C-96.020625 17.11375 -96.04125 18.2275 -96.0625 19.375 C-95.33110643 25.66498473 -90.52012136 29.93189078 -86 34 C-85.01 34.33 -84.02 34.66 -83 35 C-82.814375 33.948125 -82.814375 33.948125 -82.625 32.875 C-82 30 -82 30 -81 27.1875 C-79.8189946 23.42304529 -79.40559252 19.92072774 -79 16 C-77.68 16 -76.36 16 -75 16 C-74.52566448 22.28494564 -75.73714849 26.60393807 -78.22265625 32.38671875 C-79.12378051 35.41612645 -78.9457852 37.00914 -78 40 C-76.68568305 42.01254782 -75.35278115 44.01310269 -74 46 C-73.13918289 48.70909241 -72.87089821 51.18686022 -72.82421875 54.01953125 C-72.43438612 68.3038984 -69.86998173 80.42158939 -64.05078125 93.609375 C-63 96 -63 96 -62 99 C-58.26794448 100.24401851 -54.87607635 100.51681018 -51 100 C-42.69697571 95.84848786 -38.06554827 88.50493136 -35 80 C-34.09570335 76.92853101 -33.85295118 74.12705214 -33.7890625 70.9296875 C-33.76070313 69.95 -33.73234375 68.9703125 -33.703125 67.9609375 C-33.65163932 65.92725318 -33.60719854 63.8933765 -33.5703125 61.859375 C-33.31196857 53.61389797 -32.44194094 45.10870215 -26.9375 38.5625 C-26.43089844 37.94503906 -25.92429687 37.32757813 -25.40234375 36.69140625 C-24.93957031 36.13324219 -24.47679687 35.57507813 -24 35 C-23.34 34.01 -22.68 33.02 -22 32 C-22.73933698 30.15165756 -23.48415315 28.30524477 -24.26171875 26.47265625 C-25.66680881 21.76671971 -25.21881395 16.86253226 -25 12 C-24.01 12 -23.02 12 -22 12 C-21.86722656 12.95261719 -21.73445313 13.90523437 -21.59765625 14.88671875 C-21.33275391 16.76810547 -21.33275391 16.76810547 -21.0625 18.6875 C-20.80146484 20.54955078 -20.80146484 20.54955078 -20.53515625 22.44921875 C-20.10177103 25.32474548 -19.60350718 28.15644813 -19 31 C-11.30335582 27.5813913 -6.25575452 23.43664702 -2 16 C-1.34580043 12.15715781 -1.34580043 12.15715781 -1.3125 8.1875 C-1.09050881 1.09050881 -1.09050881 1.09050881 0 0 Z "/><path data-cppathid="10002" transform="translate(298,107)" fill="#F7DCDA" d="M0 0 C-1 3 -1 3 -3.296875 4.6171875 C-7.02505732 7.90359099 -8.34054678 11.61007974 -10.25 16.125 C-13.8448936 24.1730652 -17.5994234 29.87510366 -24 36 C-28.62291514 40.54356434 -28.62291514 40.54356434 -30.5625 46.5625 C-29.75059639 51.52413317 -28.83352801 54.57073945 -24.75 57.75390625 C-22.99154801 58.96545874 -21.22176204 60.16071437 -19.44140625 61.33984375 C-14.87410814 64.44560646 -11.42468092 68.02302337 -9 73 C-9 74.32 -9 75.64 -9 77 C-9.66 77 -10.32 77 -11 77 C-11.21011719 76.38253906 -11.42023438 75.76507813 -11.63671875 75.12890625 C-14.78228112 67.44625019 -19.24001501 64.22336084 -26.0390625 60.0078125 C-30.90960745 56.70509468 -32.34884181 53.58853541 -34 48 C-41.4032968 61.99798109 -50.00899026 78.7040693 -47.6484375 95.08837891 C-45.93257827 100.14680428 -40.66763553 103.08503077 -36.57421875 106.16015625 C-29.87123396 111.23838634 -25.5933669 118.49522154 -24.19921875 126.78515625 C-23.86093012 130.54612987 -23.8801784 134.2256195 -24 138 C-24.99 138 -25.98 138 -27 138 C-27.00386719 136.80117188 -27.00386719 136.80117188 -27.0078125 135.578125 C-27.35554808 125.7024345 -29.89366349 117.88321099 -36.3125 110.25 C-37.199375 109.5075 -38.08625 108.765 -39 108 C-40.60617901 106.56474882 -42.21019306 105.12707265 -43.8125 103.6875 C-45.20698528 102.45680418 -46.60236488 101.22711754 -48 100 C-48.17560137 106.48424334 -47.63189603 112.3448463 -46.3125 118.6875 C-46.13533447 119.55963135 -45.95816895 120.4317627 -45.77563477 121.33032227 C-44.41469717 127.72667015 -42.52851796 133.64897676 -40.14453125 139.7421875 C-38.94087148 143.16830439 -38.2756971 146.49364595 -37.625 150.0625 C-36.47902357 155.28464624 -36.47902357 155.28464624 -32.9375 159.0625 C-31.09962306 160.12694937 -31.09962306 160.12694937 -29 161 C-28.11570312 161.38671875 -27.23140625 161.7734375 -26.3203125 162.171875 C-23.89757526 163.17391363 -21.46632658 164.11172544 -19 165 C-19 165.33 -19 165.66 -19 166 C-26.25180859 166.72518086 -31.45831047 163.2978881 -37 159 C-37.268125 159.73863281 -37.53625 160.47726562 -37.8125 161.23828125 C-40.48209433 168.14936921 -43.68037984 173.77861425 -48.23046875 179.625 C-49.77803998 181.7020934 -50.93818158 183.64766381 -52 186 C-52.69921875 184.33203125 -52.69921875 184.33203125 -53 182 C-51.70703125 179.44921875 -51.70703125 179.44921875 -49.8125 176.6875 C-43.0768059 166.99205229 -43.0768059 166.99205229 -41.375 155.6875 C-41.37830322 154.91639893 -41.38160645 154.14529785 -41.38500977 153.35083008 C-41.66258765 144.95982881 -44.36134234 137.5683001 -47.35498047 129.81005859 C-48.15154335 127.57473792 -48.63639702 125.34270782 -49 123 C-56.7389229 127.3898373 -62.02343033 130.43455221 -64.66796875 139.21875 C-65.1697558 141.13160263 -65.59259921 143.06484625 -66 145 C-66.66 145 -67.32 145 -68 145 C-67.40939484 138.26710122 -66.82836256 132.61850092 -61.68359375 127.85546875 C-58.22499246 125.06140221 -54.69910341 122.46606894 -51 120 C-51.0721875 119.16082031 -51.144375 118.32164062 -51.21875 117.45703125 C-51.3115625 116.25433594 -51.404375 115.05164063 -51.5 113.8125 C-51.58241943 112.82491699 -51.58241943 112.82491699 -51.66650391 111.81738281 C-51.96183824 107.73520607 -51.96874659 103.79947108 -51.6796875 99.71484375 C-50.69295507 89.61260312 -50.69295507 89.61260312 -54.09375 80.42578125 C-59.53154013 74.82760686 -66.07312944 70.56110265 -73 67 C-73.24105469 67.83789062 -73.48210937 68.67578125 -73.73046875 69.5390625 C-75.17908913 73.48822452 -77.14620105 76.7896775 -79.3125 80.375 C-83.33359277 87.21085771 -85.77483292 93.80946531 -87.734375 101.4765625 C-89.24337839 105.67755341 -90.91726088 107.80664777 -94 111 C-96.3125 111.875 -96.3125 111.875 -98 112 C-97 109 -97 109 -94.625 107.0625 C-90.50722399 103.21924239 -90.03987062 97.3008039 -89 92 C-89.8353125 92.41572266 -89.8353125 92.41572266 -90.6875 92.83984375 C-95.89819259 95.31316236 -100.24716553 96.58161204 -106 97 C-106 96.34 -106 95.68 -106 95 C-105.13117188 94.75765625 -104.26234375 94.5153125 -103.3671875 94.265625 C-93.36747922 91.35743243 -87.71977537 89.04059332 -82.5234375 79.81640625 C-82.02070313 78.88699219 -81.51796875 77.95757812 -81 77 C-80.43539062 75.97777344 -79.87078125 74.95554687 -79.2890625 73.90234375 C-77.84518594 71.27557301 -76.41628431 68.6417218 -75 66 C-82.17297764 66.40062472 -82.17297764 66.40062472 -88.9375 68.625 C-92 70 -92 70 -95 69 C-87.63456439 63.61065687 -80.99425778 62.67425223 -72 63 C-71.7525 62.278125 -71.505 61.55625 -71.25 60.8125 C-69.89191349 57.75680536 -68.09616287 55.58526754 -66 53 C-66 52.34 -66 51.68 -66 51 C-73.12844961 47.88337552 -79.23098093 47.55121448 -86.9296875 47.47265625 C-93.48125438 47.3044136 -93.48125438 47.3044136 -96.609375 45.46875 C-97.06828125 44.9840625 -97.5271875 44.499375 -98 44 C-97.67 43.01 -97.34 42.02 -97 41 C-95.97326172 41.72123047 -95.97326172 41.72123047 -94.92578125 42.45703125 C-91.51263572 44.25702122 -89.02307577 44.49378405 -85.1875 44.6875 C-84.02605469 44.75324219 -82.86460937 44.81898438 -81.66796875 44.88671875 C-80.78753906 44.92410156 -79.90710938 44.96148437 -79 45 C-79.28875 44.34773438 -79.5775 43.69546875 -79.875 43.0234375 C-81.92067328 38.20758165 -83.56219981 34.3408982 -83 29 C-82.34 29 -81.68 29 -81 29 C-80.80664062 29.65226562 -80.61328125 30.30453125 -80.4140625 30.9765625 C-79.01359552 35.6771398 -77.58791274 40.35840891 -76 45 C-75.33613281 45.13277344 -74.67226562 45.26554687 -73.98828125 45.40234375 C-66 47 -66 47 -63.3359375 47.69921875 C-62.56507813 47.79847656 -61.79421875 47.89773437 -61 48 C-59.56148697 46.8625711 -58.13194707 45.70918608 -56.78125 44.46875 C-49.44496603 38.41953339 -39.0850014 35.17960006 -29.6875 34.75 C-24.49876826 33.69466473 -22.86251303 31.27043384 -20 27 C-19.2265625 25.86111328 -19.2265625 25.86111328 -18.4375 24.69921875 C-15.64566094 20.32301103 -13.66161186 16.21029093 -12.125 11.25 C-10.35815046 5.97191134 -6.19493956 0 0 0 Z "/><path data-cppathid="10003" transform="translate(214,47)" fill="#DD242E" d="M0 0 C1.32 0.33 2.64 0.66 4 1 C3.979375 2.11375 3.95875 3.2275 3.9375 4.375 C4.66889357 10.66498473 9.47987864 14.93189078 14 19 C14.99 19.33 15.98 19.66 17 20 C17.185625 18.948125 17.185625 18.948125 17.375 17.875 C18 15 18 15 19 12.1875 C20.1810054 8.42304529 20.59440748 4.92072774 21 1 C22.32 1 23.64 1 25 1 C25.47433552 7.28494564 24.26285151 11.60393807 21.77734375 17.38671875 C20.87621949 20.41612645 21.0542148 22.00914 22 25 C23.31431695 27.01254782 24.64721885 29.01310269 26 31 C27.03220594 34.09946809 27.11656805 36.95029464 27.09765625 40.203125 C27.09443359 41.1828125 27.09121094 42.1625 27.08789062 43.171875 C27.07532227 44.69554688 27.07532227 44.69554688 27.0625 46.25 C27.05798828 47.28125 27.05347656 48.3125 27.04882812 49.375 C27.03706088 51.91672573 27.02062011 54.45833319 27 57 C26.67 57 26.34 57 26 57 C25.01 52.05 25.01 52.05 24 47 C23.01 49.31 22.02 51.62 21 54 C20.34 54 19.68 54 19 54 C18.67 54.99 18.34 55.98 18 57 C17.64192708 55.07942708 17.28385417 53.15885417 16.92578125 51.23828125 C14.34193694 44.99126526 7.96335124 41.93516948 2.375 38.75 C1.611875 38.30398437 0.84875 37.85796875 0.0625 37.3984375 C-4.70337243 34.6392482 -8.3207515 32.85473119 -13.9375 32.8125 C-14.79214844 32.79832031 -15.64679688 32.78414062 -16.52734375 32.76953125 C-19.16222662 33.01512065 -20.68685071 33.77823221 -23 35 C-23.99 35 -24.98 35 -26 35 C-25.05525908 32.6381477 -24.4382746 31.27392163 -22.25 29.90625 C-19.69084197 28.87547802 -17.49589377 28.59178109 -14.75 28.375 C-13.85796875 28.30023438 -12.9659375 28.22546875 -12.046875 28.1484375 C-11.37140625 28.09945312 -10.6959375 28.05046875 -10 28 C-10.66 26.906875 -11.32 25.81375 -12 24.6875 C-14.62899945 19.53132855 -14.37471046 14.66229144 -14 9 C-13.01 9 -12.02 9 -11 9 C-10.85304687 10.08667969 -10.85304687 10.08667969 -10.703125 11.1953125 C-9.39150606 19.67560738 -6.85575297 24.93492705 -0.19921875 30.421875 C3.44077901 33.0338805 7.32212514 35.20426757 11.23046875 37.38671875 C13.64033022 38.79048855 15.81489617 40.27382012 18 42 C18.55234892 35.37181292 18.02061128 30.42587347 14 25 C11.2613886 22.13019763 8.4702397 19.40529644 5.55859375 16.7109375 C2.41340529 13.37847828 0.28560191 10.27719926 -0.29296875 5.6640625 C-0.1953125 3.77604167 -0.09765625 1.88802083 0 0 Z "/><path data-cppathid="10004" transform="translate(267,145)" fill="#DC1F27" d="M0 0 C-1.42197668 2.95127234 -3.02433107 5.71666301 -4.75 8.5 C-11.62585663 20.00994979 -15.750587 31.05985972 -19 44 C-23.6854656 40.00433674 -28.31070872 35.95287865 -32.88671875 31.83203125 C-34.86269557 30.11903101 -36.88769819 28.54012073 -39 27 C-35.13418709 16.22548183 -26.80642585 9.36694681 -17 4 C-11.44349769 1.44213028 -6.21912676 -0.67233803 0 0 Z "/><path data-cppathid="10005" transform="translate(357.453125,79.8984375)" fill="#FBF8F8" d="M0 0 C2.21322216 0.98133436 4.38855938 2.0052752 6.546875 3.1015625 C6.051875 1.6165625 6.051875 1.6165625 5.546875 0.1015625 C6.206875 0.1015625 6.866875 0.1015625 7.546875 0.1015625 C9.171875 2.6015625 9.171875 2.6015625 10.546875 5.1015625 C9.763125 5.3490625 8.979375 5.5965625 8.171875 5.8515625 C5.11047686 7.30937114 4.95980981 8.18149723 3.546875 11.1015625 C1.421875 11.8515625 1.421875 11.8515625 -0.453125 12.1015625 C-0.453125 12.7615625 -0.453125 13.4215625 -0.453125 14.1015625 C0.536875 14.4315625 1.526875 14.7615625 2.546875 15.1015625 C1.886875 15.2871875 1.226875 15.4728125 0.546875 15.6640625 C-2.48538771 17.11702172 -3.59594561 18.31405421 -5.828125 20.7265625 C-9.67020849 24.26745015 -13.07812426 24.69356336 -18.140625 24.6015625 C-22.35186083 24.42949975 -26.34435121 24.04430218 -30.453125 23.1015625 C-30.453125 22.4415625 -30.453125 21.7815625 -30.453125 21.1015625 C-29.64875 20.328125 -29.64875 20.328125 -28.828125 19.5390625 C-26.69034575 17.34502591 -25.26950265 15.35683746 -23.640625 12.7890625 C-18.09216412 4.27674023 -11.10804893 -4.06823448 0 0 Z "/><path data-cppathid="10006" transform="translate(247,192)" fill="#F7DFDE" d="M0 0 C0.99 0 1.98 0 3 0 C2.90976563 0.72703125 2.81953125 1.4540625 2.7265625 2.203125 C2.58664572 6.4006284 2.49211568 10.19222674 5.30859375 13.56884766 C7.61631613 15.71262213 10.06699263 17.62869062 12.55224609 19.56079102 C19.95239564 25.3527474 25.21063154 32.32974991 26.80078125 41.78515625 C27.13906988 45.54612987 27.1198216 49.2256195 27 53 C26.01 53 25.02 53 24 53 C23.99613281 51.80117187 23.99613281 51.80117187 23.9921875 50.578125 C23.64445192 40.7024345 21.10633651 32.88321099 14.6875 25.25 C13.800625 24.5075 12.91375 23.765 12 23 C10.39382099 21.56474882 8.78980694 20.12707265 7.1875 18.6875 C5.79301472 17.45680418 4.39763512 16.22711754 3 15 C2.82439863 21.48424334 3.36810397 27.3448463 4.6875 33.6875 C4.95324829 34.99569702 4.95324829 34.99569702 5.22436523 36.33032227 C6.58530283 42.72667015 8.47148204 48.64897676 10.85546875 54.7421875 C12.05912852 58.16830439 12.7243029 61.49364595 13.375 65.0625 C14.52097643 70.28464624 14.52097643 70.28464624 18.0625 74.0625 C19.90037694 75.12694937 19.90037694 75.12694937 22 76 C22.88429688 76.38671875 23.76859375 76.7734375 24.6796875 77.171875 C27.10242474 78.17391363 29.53367342 79.11172544 32 80 C32 80.33 32 80.66 32 81 C24.74819141 81.72518086 19.54168953 78.2978881 14 74 C13.731875 74.73863281 13.46375 75.47726562 13.1875 76.23828125 C10.51790567 83.14936921 7.31962016 88.77861425 2.76953125 94.625 C1.22196002 96.7020934 0.06181842 98.64766381 -1 101 C-1.69921875 99.33203125 -1.69921875 99.33203125 -2 97 C-0.70703125 94.44921875 -0.70703125 94.44921875 1.1875 91.6875 C7.9231941 81.99205229 7.9231941 81.99205229 9.625 70.6875 C9.62169678 69.91639893 9.61839355 69.14529785 9.61499023 68.35083008 C9.33741235 59.95982881 6.63865766 52.5683001 3.64501953 44.81005859 C2.84845665 42.57473792 2.36360298 40.34270782 2 38 C-5.7389229 42.3898373 -11.02343033 45.43455221 -13.66796875 54.21875 C-14.1697558 56.13160263 -14.59259921 58.06484625 -15 60 C-15.66 60 -16.32 60 -17 60 C-16.40939484 53.26710122 -15.82836256 47.61850092 -10.68359375 42.85546875 C-7.22499246 40.06140221 -3.69910341 37.46606894 0 35 C-0.0721875 34.1028125 -0.144375 33.205625 -0.21875 32.28125 C-2.12446146 6.66001808 -2.12446146 6.66001808 0 0 Z "/><path data-cppathid="10007" transform="translate(341,61)" fill="#DE2731" d="M0 0 C3 1 3 1 4 3 C4.09632897 4.81041793 4.12981533 6.62452753 4.125 8.4375 C4.12886719 9.88962891 4.12886719 9.88962891 4.1328125 11.37109375 C4 14 4 14 3 17 C3.99 16.67 4.98 16.34 6 16 C12.05510684 15.38979543 16.67951339 16.00722628 22 19 C22.495 20.485 22.495 20.485 23 22 C20.74202176 21.49822706 18.79756729 20.90699038 16.6875 19.9375 C13.20936102 18.7241957 10.66685634 18.61401512 7 19 C-1.03566718 23.01783359 -6.14219498 30.85802583 -10.73828125 38.3125 C-11.15464844 38.869375 -11.57101562 39.42625 -12 40 C-12.66 40 -13.32 40 -14 40 C-14 40.66 -14 41.32 -14 42 C-2.21863187 43.21096943 -2.21863187 43.21096943 8.93359375 40.51171875 C10.78604487 38.7675981 12.38385289 36.96020084 14 35 C17.51259889 33.16386876 18.93892569 33 23 33 C22.67 33.99 22.34 34.98 22 36 C20.34676274 36.69944653 18.68811797 37.39553607 16.984375 37.9609375 C14.12578158 39.45776004 12.19984624 41.67119725 10 44 C10.7940625 44.62648437 11.588125 45.25296875 12.40625 45.8984375 C13.4271875 46.71570313 14.448125 47.53296875 15.5 48.375 C16.5209375 49.18710938 17.541875 49.99921875 18.59375 50.8359375 C19.3878125 51.55007812 20.181875 52.26421875 21 53 C21 53.66 21 54.32 21 55 C17.59919013 54.38998926 15.56988255 53.13131396 12.875 51 C8.39759049 47.48565593 5.40134251 46.75676629 -0.25 46.4375 C-0.96293213 46.3964917 -1.67586426 46.3554834 -2.41040039 46.31323242 C-21.23310767 44.85057265 -21.23310767 44.85057265 -38 52 C-38.99 52.495 -38.99 52.495 -40 53 C-39.95875 52.21625 -39.9175 51.4325 -39.875 50.625 C-39.71271266 47.83883881 -39.71271266 47.83883881 -42 46 C-36.65894158 43.08926446 -31.94060878 41.74711372 -25.875 41.125 C-20.50320368 40.45715505 -16.9511982 39.65032434 -13.13671875 35.7109375 C-10.64109399 31.95463631 -10.79706685 28.36255113 -11.4375 24.0625 C-11.623125 23.381875 -11.80875 22.70125 -12 22 C-11.01 22.33 -10.02 22.66 -9 23 C-8.3125 25.0625 -8.3125 25.0625 -8 27 C-7.34 27 -6.68 27 -6 27 C-5.731875 26.4225 -5.46375 25.845 -5.1875 25.25 C-4 23 -4 23 -2.4375 21 C0.57238215 16.81233788 0.12370116 12.23083299 0.0625 7.25 C0.05798828 6.55261719 0.05347656 5.85523437 0.04882812 5.13671875 C0.0371002 3.42444197 0.01916653 1.71220967 0 0 Z "/><path data-cppathid="10008" transform="translate(314,32)" fill="#DC252F" d="M0 0 C0.99 0.33 1.98 0.66 3 1 C3.55707513 10.73334052 2.36620268 18.26759463 -2 27 C7.5138826 22.71223647 14.27497563 19.25271948 19.75 10.0625 C20.1625 9.381875 20.575 8.70125 21 8 C21.66 8 22.32 8 23 8 C22.88322539 13.6051815 21.3962147 16.8484758 17.55859375 20.94140625 C10.23288951 26.83552249 1.04890353 30.66707956 -8 33 C-9.66666667 31.33333333 -11.33333333 29.66666667 -13 28 C-12.113125 27.505 -11.22625 27.01 -10.3125 26.5 C-6.26038372 23.70576816 -3.70373048 20.64904592 -2 16 C-1.47947998 11.99158602 -1.25207908 8.1378665 -1.140625 4.09765625 C-1 1 -1 1 0 0 Z "/><path data-cppathid="10009" transform="translate(247,192)" fill="#F5D1D1" d="M0 0 C0.99 0 1.98 0 3 0 C2.90976563 0.72703125 2.81953125 1.4540625 2.7265625 2.203125 C2.58664572 6.4006284 2.49211568 10.19222674 5.30859375 13.56884766 C7.61631613 15.71262213 10.06699263 17.62869062 12.55224609 19.56079102 C19.95239564 25.3527474 25.21063154 32.32974991 26.80078125 41.78515625 C27.13906988 45.54612987 27.1198216 49.2256195 27 53 C26.01 53 25.02 53 24 53 C23.99613281 51.80117187 23.99613281 51.80117187 23.9921875 50.578125 C23.64445192 40.7024345 21.10633651 32.88321099 14.6875 25.25 C13.800625 24.5075 12.91375 23.765 12 23 C10.39382099 21.56474882 8.78980694 20.12707265 7.1875 18.6875 C5.79301472 17.45680418 4.39763512 16.22711754 3 15 C2.34 15.66 1.68 16.32 1 17 C1 13.37 1 9.74 1 6 C0.67 10.62 0.34 15.24 0 20 C-0.33 20 -0.66 20 -1 20 C-1.02703562 17.41659616 -1.04685611 14.83347692 -1.0625 12.25 C-1.07087891 11.52039063 -1.07925781 10.79078125 -1.08789062 10.0390625 C-1.10391684 6.51329442 -0.95292713 3.38965084 0 0 Z "/><path data-cppathid="10010" transform="translate(341,61)" fill="#DA232E" d="M0 0 C3 1 3 1 4 3 C4.09632897 4.81041793 4.12981533 6.62452753 4.125 8.4375 C4.12757813 9.40558594 4.13015625 10.37367187 4.1328125 11.37109375 C4 14 4 14 3 17 C3.99 16.67 4.98 16.34 6 16 C12.05510684 15.38979543 16.67951339 16.00722628 22 19 C22.33 19.99 22.66 20.98 23 22 C20.74202176 21.49822706 18.79756729 20.90699038 16.6875 19.9375 C13.20936102 18.7241957 10.66685634 18.61401512 7 19 C3.81420633 20.67939769 3.81420633 20.67939769 1 23 C-0.423125 24.11375 -0.423125 24.11375 -1.875 25.25 C-2.57625 25.8275 -3.2775 26.405 -4 27 C-4.66 26.34 -5.32 25.68 -6 25 C-4.73046875 23.56770833 -3.4609375 22.13541667 -2.19140625 20.703125 C0.6486085 16.64330064 0.12113149 12.02170109 0.0625 7.25 C0.05798828 6.55261719 0.05347656 5.85523437 0.04882812 5.13671875 C0.0371002 3.42444197 0.01916653 1.71220967 0 0 Z "/><path data-cppathid="10011" transform="translate(257,257)" fill="#F9E2E1" d="M0 0 C0.33 0 0.66 0 1 0 C1.33 1.98 1.66 3.96 2 6 C2.66 5.34 3.32 4.68 4 4 C4.66 4.7425 5.32 5.485 6 6.25 C10.38619013 10.64865089 16.26241435 12.84840538 22 15 C22 15.33 22 15.66 22 16 C14.74819141 16.72518086 9.54168953 13.2978881 4 9 C3.731875 9.73863281 3.46375 10.47726562 3.1875 11.23828125 C0.51790567 18.14936921 -2.68037984 23.77861425 -7.23046875 29.625 C-8.77803998 31.7020934 -9.93818158 33.64766381 -11 36 C-11.69921875 34.33203125 -11.69921875 34.33203125 -12 32 C-10.70703125 29.44921875 -10.70703125 29.44921875 -8.8125 26.6875 C-8.16667969 25.7078125 -7.52085937 24.728125 -6.85546875 23.71875 C-5.82012521 22.20169926 -4.77157085 20.69273247 -3.67578125 19.21875 C0.23544117 13.51912477 -0.1858529 6.69999691 0 0 Z "/><path data-cppathid="10012" transform="translate(291,71)" fill="#DA1A22" d="M0 0 C0.66 0 1.32 0 2 0 C1.566875 1.7325 1.566875 1.7325 1.125 3.5 C-0.46559739 10.5781584 -1.16975266 17.80157889 -2 25 C-3.32 25 -4.64 25 -6 25 C-6.33 24.34 -6.66 23.68 -7 23 C-7.66 23.66 -8.32 24.32 -9 25 C-9.05423638 23.08364783 -9.09289963 21.16685075 -9.125 19.25 C-9.14820313 18.18265625 -9.17140625 17.1153125 -9.1953125 16.015625 C-9.00487687 13.07529894 -8.52670104 11.47638122 -7 9 C-6.34 9.66 -5.68 10.32 -5 11 C-5.33 9.35 -5.66 7.7 -6 6 C-5.34 6 -4.68 6 -4 6 C-3.34 4.68 -2.68 3.36 -2 2 C-2 2.66 -2 3.32 -2 4 C-1.34 4 -0.68 4 0 4 C-0.33 3.01 -0.66 2.02 -1 1 C-0.67 0.67 -0.34 0.34 0 0 Z "/><path data-cppathid="10013" transform="translate(364,94)" fill="#DC2E37" d="M0 0 C-0.33 0.99 -0.66 1.98 -1 3 C-2.65323726 3.69944653 -4.31188203 4.39553607 -6.015625 4.9609375 C-8.87421842 6.45776004 -10.80015376 8.67119725 -13 11 C-12.2059375 11.62648438 -11.411875 12.25296875 -10.59375 12.8984375 C-9.5728125 13.71570313 -8.551875 14.53296875 -7.5 15.375 C-6.4790625 16.18710938 -5.458125 16.99921875 -4.40625 17.8359375 C-3.6121875 18.55007812 -2.818125 19.26421875 -2 20 C-2 20.66 -2 21.32 -2 22 C-5.34569624 21.40043939 -7.1720336 20.24098813 -9.75 18.0625 C-12.56313485 15.85817792 -14.75253776 14.56941347 -18.25 13.8125 C-21.76413578 13.05110392 -23.40246418 12.3810745 -26 10 C-25.1646875 10.01353516 -25.1646875 10.01353516 -24.3125 10.02734375 C-18.05901068 9.78438724 -15.22196564 7.95599054 -10.78125 3.65625 C-7.31561554 0.43381796 -4.63852837 0 0 0 Z "/><path data-cppathid="10014" transform="translate(365,90)" fill="#F9F6F4" d="M0 0 C0.66 0.33 1.32 0.66 2 1 C2.36807784 5.29424148 1.36590829 7.45113756 -1 11 C-1 11.33 -1 11.66 -1 12 C-2.65 12.33 -4.3 12.66 -6 13 C-6 13.66 -6 14.32 -6 15 C-6.66 15 -7.32 15 -8 15 C-7.34 16.65 -6.68 18.3 -6 20 C-9.99904969 20 -11.80200422 18.27413033 -15 16 C-11.11621826 10.80739804 -8.06537383 8.25964907 -2 6 C-1.67 5.34 -1.34 4.68 -1 4 C-1.99 3.67 -2.98 3.34 -4 3 C-2.68 2.67 -1.36 2.34 0 2 C0 1.34 0 0.68 0 0 Z "/><path data-cppathid="10015" transform="translate(314,32)" fill="#DF353E" d="M0 0 C0.99 0.33 1.98 0.66 3 1 C3.48718 9.51211719 3.33197721 17.40817372 -1 25 C-1.99 25.33 -2.98 25.66 -4 26 C-4 26.66 -4 27.32 -4 28 C-4.66 28 -5.32 28 -6 28 C-5.52309796 26.37433394 -5.04340334 24.74948689 -4.5625 23.125 C-4.16224609 21.76761719 -4.16224609 21.76761719 -3.75390625 20.3828125 C-3 18 -3 18 -2 16 C-1.73634236 12.77385576 -1.5556966 9.55452624 -1.39453125 6.32226562 C-1.10079169 1.10079169 -1.10079169 1.10079169 0 0 Z "/><path data-cppathid="10016" transform="translate(215,136)" fill="#F7DFDF" d="M0 0 C0.66 0 1.32 0 2 0 C2.19335938 0.65226563 2.38671875 1.30453125 2.5859375 1.9765625 C3.98640448 6.6771398 5.41208726 11.35840891 7 16 C7.66 16 8.32 16 9 16 C9 16.66 9 17.32 9 18 C5.75017 18.08728882 2.5006425 18.14048658 -0.75 18.1875 C-2.13058594 18.22520508 -2.13058594 18.22520508 -3.5390625 18.26367188 C-4.42851562 18.27333984 -5.31796875 18.28300781 -6.234375 18.29296875 C-7.05131836 18.3086792 -7.86826172 18.32438965 -8.70996094 18.34057617 C-11.51240627 17.92379459 -12.88847021 16.83804852 -15 15 C-14.67 14.01 -14.34 13.02 -14 12 C-13.31550781 12.48082031 -12.63101563 12.96164063 -11.92578125 13.45703125 C-8.51263572 15.25702122 -6.02307577 15.49378405 -2.1875 15.6875 C-1.02605469 15.75324219 0.13539063 15.81898438 1.33203125 15.88671875 C2.21246094 15.92410156 3.09289062 15.96148437 4 16 C3.71125 15.34773437 3.4225 14.69546875 3.125 14.0234375 C1.07932672 9.20758165 -0.56219981 5.3408982 0 0 Z "/><path data-cppathid="10017" transform="translate(266,152)" fill="#F6D9D7" d="M0 0 C0.33 0 0.66 0 1 0 C1.15855469 0.67546875 1.31710937 1.3509375 1.48046875 2.046875 C2.94804095 7.65770351 3.88905794 10.84644001 9 14 C20.14862385 21.13077565 20.14862385 21.13077565 23 28 C23 29.32 23 30.64 23 32 C22.34 32 21.68 32 21 32 C20.78988281 31.38253906 20.57976562 30.76507813 20.36328125 30.12890625 C17.21771888 22.44625019 12.75998499 19.22336084 5.9609375 15.0078125 C2.64311729 12.75799774 0.69440578 10.79388159 -0.75 7.0625 C-1.05788202 4.5224733 -0.61715341 2.46861363 0 0 Z "/><path data-cppathid="10018" transform="translate(230,175)" fill="#F7E7E5" d="M0 0 C4.00646398 0.121408 5.81131258 1.55909582 8.5 4.3125 C9.08910156 4.93898437 9.67820313 5.56546875 10.28515625 6.2109375 C12.35656838 8.37200073 14.61646076 10.19428846 17 12 C17.99 10.02 18.98 8.04 20 6 C20.33 6 20.66 6 21 6 C21.125 13.625 21.125 13.625 20 17 C15.67634195 16.55237423 13.40015985 13.73988644 10.5625 10.75 C10.09779297 10.27175781 9.63308594 9.79351562 9.15429688 9.30078125 C7.7653921 7.87119725 6.38266586 6.43561902 5 5 C3.34070822 3.32573966 1.67135312 1.66225319 0 0 Z "/><path data-cppathid="10019" transform="translate(228,72)" fill="#F8EAE9" d="M0 0 C2.78377547 2.40416972 4.01765406 4.44844158 5 8 C5.15883546 11.34066846 5.11679107 14.65847774 5 18 C3.01716521 16.88147781 1.03882377 15.75498675 -0.9375 14.625 C-2.03964844 13.99851562 -3.14179688 13.37203125 -4.27734375 12.7265625 C-7 11 -7 11 -8 9 C-6.68 8.67 -5.36 8.34 -4 8 C-4 8.66 -4 9.32 -4 10 C-3.01 9.34 -2.02 8.68 -1 8 C-0.01 8 0.98 8 2 8 C1.34 5.36 0.68 2.72 0 0 Z "/><path data-cppathid="10020" transform="translate(228,169)" fill="#F4D5D5" d="M0 0 C0.28875 0.61875 0.5775 1.2375 0.875 1.875 C1.93720042 4.13325765 1.93720042 4.13325765 4 6 C3.01 6.33 2.02 6.66 1 7 C-1.1875 5.5625 -1.1875 5.5625 -3 4 C-3.33 4.33 -3.66 4.66 -4 5 C-5.70883116 4.99408709 -7.41758415 4.94478539 -9.125 4.875 C-14.31618589 4.8008402 -17.38208212 5.78724768 -22 8 C-22.99 7.67 -23.98 7.34 -25 7 C-17.46290813 1.48505473 -9.25480932 0 0 0 Z "/><path data-cppathid="10021" transform="translate(335,40)" fill="#DF2E3A" d="M0 0 C0.66 0 1.32 0 2 0 C1.87523412 5.98876242 -0.00627382 8.92456052 -4.078125 13.265625 C-6.49794328 15.44936345 -8.97088803 16.81790752 -12 18 C-12.99 17.01 -13.98 16.02 -15 15 C-13.948125 14.46375 -12.89625 13.9275 -11.8125 13.375 C-6.92640641 10.58153639 -4.16588952 6.9863303 -1.3125 2.125 C-0.879375 1.42375 -0.44625 0.7225 0 0 Z "/><path data-cppathid="10022" transform="translate(329,83)" fill="#DA2129" d="M0 0 C0.99 0.33 1.98 0.66 3 1 C3.6875 3.0625 3.6875 3.0625 4 5 C5.32 4.67 6.64 4.34 8 4 C6.67997942 7.57294032 5.10478612 10.63953492 3 13.8125 C2.484375 14.60269531 1.96875 15.39289063 1.4375 16.20703125 C0.963125 16.79871094 0.48875 17.39039062 0 18 C-0.66 18 -1.32 18 -2 18 C-2 18.66 -2 19.32 -2 20 C-2.66 20 -3.32 20 -4 20 C-4 19.34 -4 18.68 -4 18 C-4.66 17.67 -5.32 17.34 -6 17 C-5.030625 16.319375 -4.06125 15.63875 -3.0625 14.9375 C-0.38900691 12.7116909 -0.01811186 12.06761763 0.9375 8.5 C0.99223416 5.43488701 0.80304902 2.94451306 0 0 Z "/><path data-cppathid="10023" transform="translate(200,56)" fill="#DF3039" d="M0 0 C0.99 0 1.98 0 3 0 C3.09796875 0.72445312 3.1959375 1.44890625 3.296875 2.1953125 C4.22376326 8.1881245 5.20473276 12.25591596 9 17 C9.66 17.99 10.32 18.98 11 20 C8.30903602 20 6.50074148 19.9102699 4 19 C-0.73492707 13.53437431 -0.4516605 6.82509193 0 0 Z "/><path data-cppathid="10024" transform="translate(257,257)" fill="#F4C3C4" d="M0 0 C0.33 0 0.66 0 1 0 C1.33 1.98 1.66 3.96 2 6 C2.66 5.34 3.32 4.68 4 4 C4.66 4.7425 5.32 5.485 6 6.25 C10.38619013 10.64865089 16.26241435 12.84840538 22 15 C22 15.33 22 15.66 22 16 C15.38956753 16.66104325 10.76090314 13.9326322 5.5 10.25 C5.005 9.8375 4.51 9.425 4 9 C3.34 9.66 2.68 10.32 2 11 C1.34 10.67 0.68 10.34 0 10 C0 6.7 0 3.4 0 0 Z "/><path data-cppathid="10025" transform="translate(289,44)" fill="#DC2A34" d="M0 0 C0.99 0 1.98 0 3 0 C3.13277344 0.96421875 3.26554687 1.9284375 3.40234375 2.921875 C3.57894531 4.18515625 3.75554687 5.4484375 3.9375 6.75 C4.19853516 8.62945312 4.19853516 8.62945312 4.46484375 10.546875 C4.86049338 13.09982593 5.30446422 15.5186291 6 18 C5.01 18.66 4.02 19.32 3 20 C-0.13902852 13.19877155 -0.33452052 7.43378943 0 0 Z "/><path data-cppathid="10026" transform="translate(332,267)" fill="#FAF5F5" d="M0 0 C0.144375 0.598125 0.28875 1.19625 0.4375 1.8125 C0.8872439 3.56150404 1.42892341 5.28677023 2 7 C1.22024181 9.90637144 0.65272653 11.52733596 -1.8125 13.3125 C-4.30661531 14.09636481 -6.39985012 14.04727545 -9 14 C-7.87540329 12.22891052 -6.75030797 10.45813764 -5.625 8.6875 C-4.99851562 7.70136719 -4.37203125 6.71523438 -3.7265625 5.69921875 C-2.50348387 3.78712071 -1.2590644 1.8885966 0 0 Z "/><path data-cppathid="10027" transform="translate(306,53)" fill="#F8EDEC" d="M0 0 C0.66 0.33 1.32 0.66 2 1 C0.7986165 4.60415049 -0.26143988 5.14706011 -3.375 7.1875 C-4.16648437 7.71730469 -4.95796875 8.24710938 -5.7734375 8.79296875 C-8 10 -8 10 -11 10 C-11.66 7.69 -12.32 5.38 -13 3 C-11.96875 3.20625 -10.9375 3.4125 -9.875 3.625 C-5.8765784 4.01194403 -3.66306243 3.51883076 0 2 C0 1.34 0 0.68 0 0 Z "/><path data-cppathid="10028" transform="translate(272,321)" fill="#DD202C" d="M0 0 C0.66 0.66 1.32 1.32 2 2 C3.98821313 2.39764263 5.98944339 2.73775349 8 3 C8 3.66 8 4.32 8 5 C4.57192418 7.10958512 1.99176419 7.55884699 -2 7 C-4.27048342 5.51902558 -6.02153745 3.88425005 -8 2 C-7.34 1.67 -6.68 1.34 -6 1 C-5.01 1.33 -4.02 1.66 -3 2 C-2.01 1.34 -1.02 0.68 0 0 Z "/><path data-cppathid="10029" transform="translate(205,79)" fill="#F9EAEB" d="M0 0 C-0.94939453 0.43119141 -0.94939453 0.43119141 -1.91796875 0.87109375 C-4.14626354 1.8611929 -4.14626354 1.8611929 -5.3125 4.0625 C-7.81046756 6.93053683 -10.33657155 6.72351483 -14 7 C-14 6.34 -14 5.68 -14 5 C-14.66 4.34 -15.32 3.68 -16 3 C-10.62669111 -0.39366878 -6.13053511 -0.32712342 0 0 Z "/><path data-cppathid="10030" transform="translate(249,206)" fill="#DD2D38" d="M0 0 C1.34173403 0.92543709 2.67320159 1.86577405 4 2.8125 C5.11375 3.59560547 5.11375 3.59560547 6.25 4.39453125 C6.8275 4.92433594 7.405 5.45414063 8 6 C8 6.99 8 7.98 8 9 C7.01 9.495 7.01 9.495 6 10 C6 9.01 6 8.02 6 7 C5.34 7 4.68 7 4 7 C4 7.99 4 8.98 4 10 C3.34 10 2.68 10 2 10 C1.67 10.66 1.34 11.32 1 12 C-0.26237731 9.47524538 -0.09856404 7.68799534 -0.0625 4.875 C-0.05347656 3.96492187 -0.04445312 3.05484375 -0.03515625 2.1171875 C-0.02355469 1.41851562 -0.01195312 0.71984375 0 0 Z "/><path data-cppathid="10031" transform="translate(294,111)" fill="#DD2833" d="M0 0 C0 3.10551666 -0.5393715 4.35261084 -2 7 C-1.34 7 -0.68 7 0 7 C-0.33 8.98 -0.66 10.96 -1 13 C-1.66 13 -2.32 13 -3 13 C-3.495 13.495 -3.99 13.99 -4.5 14.5 C-4.995 14.995 -5.49 15.49 -6 16 C-6.66 16 -7.32 16 -8 16 C-6.25914401 10.06526368 -4.48433447 4.48433447 0 0 Z "/><path data-cppathid="10032" transform="translate(209,198)" fill="#DE2732" d="M0 0 C1 2 1 2 0.0625 5.125 C-0.288125 6.07375 -0.63875 7.0225 -1 8 C-8.625 9.25 -8.625 9.25 -12 7 C-12 6.34 -12 5.68 -12 5 C-10.82630859 4.58427734 -10.82630859 4.58427734 -9.62890625 4.16015625 C-8.61699219 3.79792969 -7.60507813 3.43570313 -6.5625 3.0625 C-5.55316406 2.70285156 -4.54382813 2.34320313 -3.50390625 1.97265625 C-1.09686255 1.23122361 -1.09686255 1.23122361 0 0 Z "/><path data-cppathid="10033" transform="translate(233,82)" fill="#DE222A" d="M0 0 C0.33 0 0.66 0 1 0 C1.06058594 0.81984375 1.12117187 1.6396875 1.18359375 2.484375 C1.26738281 3.56203125 1.35117188 4.6396875 1.4375 5.75 C1.51871094 6.81734375 1.59992188 7.8846875 1.68359375 8.984375 C1.9073895 11.89064628 1.9073895 11.89064628 2.59765625 14.203125 C3 16 3 16 2 19 C1.34 19 0.68 19 0 19 C-0.33 19.99 -0.66 20.98 -1 22 C-1.48828125 19.98177083 -1.9765625 17.96354167 -2.46484375 15.9453125 C-2.94846992 13.9414343 -2.94846992 13.9414343 -4 12 C-3.01 11.34 -2.02 10.68 -1 10 C-0.41810734 7.57478506 -0.41810734 7.57478506 -0.3125 4.875 C-0.21388672 3.50988281 -0.21388672 3.50988281 -0.11328125 2.1171875 C-0.07589844 1.41851562 -0.03851563 0.71984375 0 0 Z "/><path data-cppathid="10034" transform="translate(235,72)" fill="#DA2026" d="M0 0 C0.99 0.99 1.98 1.98 3 3 C2.67257813 3.50015625 2.34515625 4.0003125 2.0078125 4.515625 C0.6276358 7.91792104 0.78637162 11.14350651 0.875 14.75 C0.88853516 15.79607422 0.88853516 15.79607422 0.90234375 16.86328125 C0.92580112 18.57566958 0.96166896 20.28788004 1 22 C0.34 22 -0.32 22 -1 22 C-1.07347656 20.78763672 -1.07347656 20.78763672 -1.1484375 19.55078125 C-1.26058594 17.94783203 -1.26058594 17.94783203 -1.375 16.3125 C-1.44460937 15.25675781 -1.51421875 14.20101562 -1.5859375 13.11328125 C-1.98923111 10.08096989 -2.82588102 7.80165788 -4 5 C-4 4.01 -4 3.02 -4 2 C-3.01 1.67 -2.02 1.34 -1 1 C-1 1.99 -1 2.98 -1 4 C-0.34 4 0.32 4 1 4 C0.67 2.68 0.34 1.36 0 0 Z "/><path data-cppathid="10035" transform="translate(237,116)" fill="#DE2D35" d="M0 0 C0.66 0 1.32 0 2 0 C1.67 2.64 1.34 5.28 1 8 C1.99 7.67 2.98 7.34 4 7 C3.75 8.875 3.75 8.875 3 11 C1.66666667 11.66666667 0.33333333 12.33333333 -1 13 C-1.75243555 14.92638012 -1.75243555 14.92638012 -2 17 C-2.33 17.99 -2.66 18.98 -3 20 C-3.66 19.67 -4.32 19.34 -5 19 C-5 17.68 -5 16.36 -5 15 C-4.51789063 14.52691406 -4.03578125 14.05382812 -3.5390625 13.56640625 C-1.43580072 11.42577688 -1.54021468 9.8896254 -1.375 6.9375 C-1.08040201 2.16080402 -1.08040201 2.16080402 0 0 Z "/><path data-cppathid="10036" transform="translate(226,171)" fill="#F7E8E7" d="M0 0 C0.33 0.66 0.66 1.32 1 2 C0.34 2 -0.32 2 -1 2 C-1.09152344 2.69480469 -1.18304688 3.38960937 -1.27734375 4.10546875 C-2.15515498 7.6214586 -3.69051967 10.21522346 -5.5625 13.3125 C-6.20316406 14.38113281 -6.84382812 15.44976562 -7.50390625 16.55078125 C-7.99761719 17.35902344 -8.49132812 18.16726562 -9 19 C-10.12331476 16.21470493 -10.07314683 15.18087217 -8.92578125 12.34375 C-8.12720703 10.93609375 -8.12720703 10.93609375 -7.3125 9.5 C-6.53326172 8.09234375 -6.53326172 8.09234375 -5.73828125 6.65625 C-4.04705591 4.07190567 -2.26226819 2.08976408 0 0 Z "/><path data-cppathid="10037" transform="translate(214,131)" fill="#DE2C34" d="M0 0 C1.65 0 3.3 0 5 0 C5.06058594 0.66386719 5.12117187 1.32773438 5.18359375 2.01171875 C5.79863507 8.54908081 5.79863507 8.54908081 7 15 C6.34 15 5.68 15 5 15 C3.39644899 11.49223216 2.77963136 8.85645121 3 5 C2.34 5 1.68 5 1 5 C0.67 5.99 0.34 6.98 0 8 C-0.99 6.68 -1.98 5.36 -3 4 C-2.01 3.67 -1.02 3.34 0 3 C0 2.01 0 1.02 0 0 Z "/><path data-cppathid="10038" transform="translate(281,85)" fill="#E02E38" d="M0 0 C0.33 0 0.66 0 1 0 C1.33 2.97 1.66 5.94 2 9 C2.66 8.34 3.32 7.68 4 7 C3.67 10.96 3.34 14.92 3 19 C2.34 19 1.68 19 1 19 C1 20.65 1 22.3 1 24 C0.67 24 0.34 24 0 24 C0 16.08 0 8.16 0 0 Z "/><path data-cppathid="10039" transform="translate(214,47)" fill="#DE414A" d="M0 0 C1.32 0.33 2.64 0.66 4 1 C4.22786458 3.01822917 4.45572917 5.03645833 4.68359375 7.0546875 C4.91292961 9.07404316 4.91292961 9.07404316 6 11 C5.34 11 4.68 11 4 11 C3.67 11.99 3.34 12.98 3 14 C-0.00559652 8.99067246 -0.29341888 5.67276511 0 0 Z "/><path data-cppathid="10040" transform="translate(246,212)" fill="#DF2731" d="M0 0 C0.33 0 0.66 0 1 0 C1.33 4.95 1.66 9.9 2 15 C1.01 15.66 0.02 16.32 -1 17 C-1 15.68 -1 14.36 -1 13 C-1.66 13 -2.32 13 -3 13 C-2.67 10.03 -2.34 7.06 -2 4 C-1.34 4 -0.68 4 0 4 C0 2.68 0 1.36 0 0 Z "/><path data-cppathid="10041" transform="translate(347,77)" fill="#DC212A" d="M0 0 C6.13479598 -0.37559975 10.58492219 -0.04598127 16 3 C16.33 3.99 16.66 4.98 17 6 C14.74202176 5.49822706 12.79756729 4.90699038 10.6875 3.9375 C6.30732556 2.40953217 2.37345649 2.54218117 -2 4 C-1.34 2.68 -0.68 1.36 0 0 Z "/><path data-cppathid="10042" transform="translate(225,174)" fill="#DD2C36" d="M0 0 C0.66 0 1.32 0 2 0 C2.1875 2.875 2.1875 2.875 2 6 C1.01 6.66 0.02 7.32 -1 8 C-1.73343428 11.06556598 -1.73343428 11.06556598 -2 14 C-3.65 14.33 -5.3 14.66 -7 15 C-5.63408831 11.45756548 -4.09068516 8.07372071 -2.375 4.6875 C-1.70597656 3.36298828 -1.70597656 3.36298828 -1.0234375 2.01171875 C-0.68570313 1.34785156 -0.34796875 0.68398437 0 0 Z "/><path data-cppathid="10043" transform="translate(201,76)" fill="#DD2934" d="M0 0 C0 0.66 0 1.32 0 2 C0.66 2.33 1.32 2.66 2 3 C-5.5 4.5 -5.5 4.5 -13 6 C-12.06896676 3.67241689 -11.34617872 2.25642868 -9.3125 0.75 C-6.16454282 -0.27095909 -3.28456632 -0.12632947 0 0 Z "/><path data-cppathid="10044" transform="translate(234,241)" fill="#D62229" d="M0 0 C0.66 1.32 1.32 2.64 2 4 C1.67 4.99 1.34 5.98 1 7 C0.65179959 8.66362417 0.31595508 10.32995171 0 12 C-1.32 12.33 -2.64 12.66 -4 13 C-5.80230168 9.17010894 -6.19622241 6.21878192 -6 2 C-5.34 1.67 -4.68 1.34 -4 1 C-4 4.3 -4 7.6 -4 11 C-3.34 11 -2.68 11 -2 11 C-1.34 7.37 -0.68 3.74 0 0 Z "/><path data-cppathid="10045" transform="translate(288,69)" fill="#E12E39" d="M0 0 C1.14175295 3.75261458 0.60183973 5.41941707 -1 9 C-1 9.66 -1 10.32 -1 11 C-1.31802943 12.66965451 -1.64984951 14.33678518 -2 16 C-2.66 14.68 -3.32 13.36 -4 12 C-4.66 12.99 -5.32 13.98 -6 15 C-5.61471495 8.83543922 -3.52913975 5.01372252 0 0 Z "/><path data-cppathid="10046" transform="translate(357,162)" fill="#E5454F" d="M0 0 C0.33 0 0.66 0 1 0 C1.82222554 4.29605732 2.11770795 8.33966603 2.09765625 12.7109375 C2.09443359 13.95488281 2.09121094 15.19882813 2.08789062 16.48046875 C2.07951172 17.76566406 2.07113281 19.05085938 2.0625 20.375 C2.05798828 21.68339844 2.05347656 22.99179688 2.04882812 24.33984375 C2.03707594 27.55994281 2.02064543 30.7799477 2 34 C1.67 34 1.34 34 1 34 C0.67 25.42 0.34 16.84 0 8 C-0.66 8.66 -1.32 9.32 -2 10 C-2 8.68 -2 7.36 -2 6 C-1.34 6 -0.68 6 0 6 C0 4.02 0 2.04 0 0 Z "/><path data-cppathid="10047" transform="translate(247,192)" fill="#F0A9A9" d="M0 0 C0.99 0 1.98 0 3 0 C3 3.63 3 7.26 3 11 C2.67 11 2.34 11 2 11 C1.67 9.35 1.34 7.7 1 6 C0.67 10.62 0.34 15.24 0 20 C-0.33 20 -0.66 20 -1 20 C-1.02703562 17.41659616 -1.04685611 14.83347692 -1.0625 12.25 C-1.07087891 11.52039063 -1.07925781 10.79078125 -1.08789062 10.0390625 C-1.10391684 6.51329442 -0.95292713 3.38965084 0 0 Z "/><path data-cppathid="10048" transform="translate(217.6875,171.4375)" fill="#F5CAC9" d="M0 0 C0.99386719 0.10183594 1.98773438 0.20367187 3.01171875 0.30859375 C3.77097656 0.39238281 4.53023437 0.47617188 5.3125 0.5625 C5.3125 0.8925 5.3125 1.2225 5.3125 1.5625 C4.67183594 1.59988281 4.03117187 1.63726562 3.37109375 1.67578125 C-0.92697956 2.00246044 -4.69264887 2.33946374 -8.625 4.1875 C-11.6875 5.5625 -11.6875 5.5625 -14.6875 4.5625 C-9.36995782 0.89930427 -6.44604822 -0.68252275 0 0 Z "/><path data-cppathid="10049" transform="translate(345,105)" fill="#DA1B24" d="M0 0 C-5.01454385 3.34302923 -10.81609182 2.30122871 -16.625 1.5 C-17.40875 1.335 -18.1925 1.17 -19 1 C-13.42833649 -2.71444234 -6.3580203 -1.08221622 0 0 Z "/><path data-cppathid="10050" transform="translate(305,62)" fill="#D91C23" d="M0 0 C0.33 0.99 0.66 1.98 1 3 C-5.4 5.21538462 -5.4 5.21538462 -8.4375 4.125 C-8.953125 3.75375 -9.46875 3.3825 -10 3 C-10 2.34 -10 1.68 -10 1 C-6.21812119 -0.83691257 -4.05431692 -1.15837626 0 0 Z "/><path data-cppathid="10051" transform="translate(178,192)" fill="#DD2E34" d="M0 0 C0.66 0.33 1.32 0.66 2 1 C3.17169312 4.98375661 3.08089427 8.87439224 3 13 C2.01 13 1.02 13 0 13 C-1.49084832 8.52745503 -1.49084832 4.47254497 0 0 Z "/><path data-cppathid="10052" transform="translate(267,145)" fill="#E0343C" d="M0 0 C-1.29299694 2.88437779 -2.65941363 4.87219421 -5 7 C-5 6.01 -5 5.02 -5 4 C-7.31 3.67 -9.62 3.34 -12 3 C-7.78372195 0.18914797 -4.97048208 -0.11045516 0 0 Z "/><path data-cppathid="10053" transform="translate(233,59)" fill="#DD2A34" d="M0 0 C0.66 0 1.32 0 2 0 C3.36884358 4.51718381 2.47075246 7.58774263 1 12 C0.67 11.34 0.34 10.68 0 10 C-2.01669827 8.86649466 -2.01669827 8.86649466 -4 8 C-3.34 8 -2.68 8 -2 8 C-1.855625 7.236875 -1.71125 6.47375 -1.5625 5.6875 C-1 3 -1 3 0 0 Z "/><path data-cppathid="10054" transform="translate(248,203)" fill="#F7DFDF" d="M0 0 C2.99220268 1.36370299 5.29026529 2.94908083 7.75 5.125 C8.67039062 5.93324219 8.67039062 5.93324219 9.609375 6.7578125 C10.06828125 7.16773438 10.5271875 7.57765625 11 8 C10.34 8.66 9.68 9.32 9 10 C6.69 8.02 4.38 6.04 2 4 C1.34 4.66 0.68 5.32 0 6 C0 4.02 0 2.04 0 0 Z "/><path data-cppathid="10055" transform="translate(240,82)" fill="#DE2A35" d="M0 0 C0.33 0 0.66 0 1 0 C1 7.26 1 14.52 1 22 C0.67 22 0.34 22 0 22 C-1.60037454 14.03505901 -2.38865388 7.82947661 0 0 Z "/><path data-cppathid="10056" transform="translate(316,46)" fill="#F7DFDD" d="M0 0 C1.5625 1.75 1.5625 1.75 3 4 C2.6875 6.25 2.6875 6.25 2 8 C0.68 8.33 -0.64 8.66 -2 9 C-2 9.66 -2 10.32 -2 11 C-1.34 11.33 -0.68 11.66 0 12 C-1.65 12.66 -3.3 13.32 -5 14 C-3.46527032 9.27775484 -1.76054874 4.64144669 0 0 Z "/><path data-cppathid="10057" transform="translate(179,157)" fill="#E22531" d="M0 0 C0.12375 0.639375 0.2475 1.27875 0.375 1.9375 C0.58125 2.618125 0.7875 3.29875 1 4 C1.66 4.33 2.32 4.66 3 5 C4.10348459 8.08142868 4.10523224 11.00234962 4.0625 14.25 C4.05347656 15.14203125 4.04445312 16.0340625 4.03515625 16.953125 C4.02355469 17.62859375 4.01195312 18.3040625 4 19 C3.67 19 3.34 19 3 19 C2.87882813 18.38511719 2.75765625 17.77023438 2.6328125 17.13671875 C2.46523437 16.32847656 2.29765625 15.52023438 2.125 14.6875 C1.96257812 13.88699219 1.80015625 13.08648437 1.6328125 12.26171875 C1.05521001 9.74698882 1.05521001 9.74698882 -1 7 C-0.625 3.3125 -0.625 3.3125 0 0 Z "/><path data-cppathid="10058" transform="translate(211,131)" fill="#DD2E37" d="M0 0 C-0.99 0.495 -0.99 0.495 -2 1 C-1.34 1 -0.68 1 0 1 C0 1.66 0 2.32 0 3 C-4.40914783 4.10228696 -8.48382401 4.07654536 -13 4 C-8.93522219 0.68795882 -5.26054188 -1.94834884 0 0 Z "/><path data-cppathid="10059" transform="translate(335,80)" fill="#F8F2F1" d="M0 0 C1.65 0.33 3.3 0.66 5 1 C4.21654285 2.17219543 3.42297164 3.33763668 2.625 4.5 C2.18414062 5.1496875 1.74328125 5.799375 1.2890625 6.46875 C0.86367188 6.9740625 0.43828125 7.479375 0 8 C-0.66 8 -1.32 8 -2 8 C-2.6875 6.25 -2.6875 6.25 -3 4 C-1.5625 1.75 -1.5625 1.75 0 0 Z "/><path data-cppathid="10060" transform="translate(298,107)" fill="#F9EFED" d="M0 0 C-1.24023608 3.72070823 -2.95730148 4.62521091 -6 7 C-6.99 8.485 -6.99 8.485 -8 10 C-8.66 10 -9.32 10 -10 10 C-9.9375 7.8125 -9.9375 7.8125 -9 5 C-6.43314355 2.61372642 -3.61081552 0 0 0 Z "/><path data-cppathid="10061" transform="translate(265,267)" fill="#F8DCDD" d="M0 0 C3.23165844 0.71730736 6.18707922 1.81315074 9.25 3.0625 C10.14203125 3.42472656 11.0340625 3.78695313 11.953125 4.16015625 C12.96632813 4.57587891 12.96632813 4.57587891 14 5 C14 5.33 14 5.66 14 6 C8.34388537 6.56561146 4.77357872 4.71391278 0 2 C0 1.34 0 0.68 0 0 Z "/><path data-cppathid="10062" transform="translate(281,172)" fill="#F8DDDA" d="M0 0 C1.75 0.0625 1.75 0.0625 4 1 C6.86059344 4.67238347 8 7.29553866 8 12 C7.34 12 6.68 12 6 12 C4 8 2 4 0 0 Z "/><path data-cppathid="10063" transform="translate(268,144)" fill="#F9F5F2" d="M0 0 C1.18771723 3.42943519 0.80226223 5.37784675 -0.4375 8.75 C-0.72496094 9.54921875 -1.01242187 10.3484375 -1.30859375 11.171875 C-1.53675781 11.77515625 -1.76492188 12.3784375 -2 13 C-2.33 12.01 -2.66 11.02 -3 10 C-3.66 10 -4.32 10 -5 10 C-4.49701212 5.59885603 -2.91227269 3.28804981 0 0 Z "/><path data-cppathid="10064" transform="translate(346,136)" fill="#DE2A32" d="M0 0 C2.61724095 2.36797991 4.32861729 4.89600354 6 8 C6 8.66 6 9.32 6 10 C4.68 10 3.36 10 2 10 C1.67 8.02 1.34 6.04 1 4 C0.34 4 -0.32 4 -1 4 C-0.67 2.68 -0.34 1.36 0 0 Z "/><path data-cppathid="10065" transform="translate(265,131)" fill="#DF3039" d="M0 0 C0.33 0.66 0.66 1.32 1 2 C0.0625 4.625 0.0625 4.625 -1 7 C-2.98 7 -4.96 7 -7 7 C-6.67 6.01 -6.34 5.02 -6 4 C-6.66 3.34 -7.32 2.68 -8 2 C-5.36 1.34 -2.72 0.68 0 0 Z "/><path data-cppathid="10066" transform="translate(206,201)" fill="#F5D2D1" d="M0 0 C-9.41002278 3.44419134 -9.41002278 3.44419134 -14 3 C-14 2.34 -14 1.68 -14 1 C-12.42298018 0.44021816 -10.83800758 -0.09719401 -9.25 -0.625 C-7.92742187 -1.07746094 -7.92742187 -1.07746094 -6.578125 -1.5390625 C-3.58982529 -2.07333427 -2.50076998 -1.62433191 0 0 Z "/><path data-cppathid="10067" transform="translate(200,148)" fill="#F6D8D5" d="M0 0 C0.78375 0.474375 1.5675 0.94875 2.375 1.4375 C6.92189258 3.39736749 11.09893144 3.71910872 16 4 C16 4.33 16 4.66 16 5 C14.08591243 5.24979445 12.16848389 5.47408014 10.25 5.6875 C9.18265625 5.81511719 8.1153125 5.94273437 7.015625 6.07421875 C4 6 4 6 1.609375 4.70703125 C0 3 0 3 0 0 Z "/><path data-cppathid="10068" transform="translate(264,154)" fill="#DE3039" d="M0 0 C1.64826111 2.96687001 2.44271087 5.65626525 3 9 C2.01 9.33 1.02 9.66 0 10 C0 8.68 0 7.36 0 6 C-0.99 6 -1.98 6 -3 6 C-1.125 1.125 -1.125 1.125 0 0 Z "/><path data-cppathid="10069" transform="translate(220,150)" fill="#F9F2F0" d="M0 0 C0.66 0 1.32 0 2 0 C2 0.66 2 1.32 2 2 C2.66 2 3.32 2 4 2 C4 2.66 4 3.32 4 4 C-1.28 4 -6.56 4 -12 4 C-12 3.67 -12 3.34 -12 3 C-6.06 2.505 -6.06 2.505 0 2 C0 1.34 0 0.68 0 0 Z "/><path data-cppathid="10070" transform="translate(329,95)" fill="#DF2E3A" d="M0 0 C0.99 0.66 1.98 1.32 3 2 C1.625 4 1.625 4 0 6 C-0.66 6 -1.32 6 -2 6 C-2 6.66 -2 7.32 -2 8 C-2.66 8 -3.32 8 -4 8 C-4 7.34 -4 6.68 -4 6 C-4.66 5.67 -5.32 5.34 -6 5 C-4.02 3.35 -2.04 1.7 0 0 Z "/><path data-cppathid="10071" transform="translate(291,61)" fill="#F9E8E4" d="M0 0 C0.66 1.32 1.32 2.64 2 4 C0.02 6.31 -1.96 8.62 -4 11 C-4.66 9.68 -5.32 8.36 -6 7 C-5.01 6.34 -4.02 5.68 -3 5 C-1.94895617 3.36504293 -0.94011682 1.70116376 0 0 Z "/><path data-cppathid="10072" transform="translate(242,282)" fill="#E12533" d="M0 0 C0.66 0.66 1.32 1.32 2 2 C1.625 4.125 1.625 4.125 1 6 C1.99 6.33 2.98 6.66 4 7 C3.34 8.32 2.68 9.64 2 11 C0.5 9.875 0.5 9.875 -1 8 C-1.25265405 4.90498792 -1.39935013 2.79870027 0 0 Z "/><path data-cppathid="10073" transform="translate(266,265)" fill="#DB292D" d="M0 0 C6.625 0.75 6.625 0.75 10 3 C9.34 3 8.68 3 8 3 C8 3.66 8 4.32 8 5 C2.25 3.125 2.25 3.125 0 2 C0 1.34 0 0.68 0 0 Z "/><path data-cppathid="10074" transform="translate(180,214)" fill="#F5E3E1" d="M0 0 C1.88391785 3.26545761 2.49287967 6.28111761 3 10 C1 10 -1 10 -3 10 C-2.67 8.35 -2.34 6.7 -2 5 C-1.67 5 -1.34 5 -1 5 C-0.67 3.35 -0.34 1.7 0 0 Z "/><path data-cppathid="10075" transform="translate(262,152)" fill="#F9E3E3" d="M0 0 C0.66 0.99 1.32 1.98 2 3 C0.35 5.97 -1.3 8.94 -3 12 C-3.33 12 -3.66 12 -4 12 C-3.5317879 7.22423661 -2.75668002 3.95523655 0 0 Z "/><path data-cppathid="10076" transform="translate(354,108)" fill="#DD3741" d="M0 0 C1.33897583 0.95043374 2.67105427 1.91059147 4 2.875 C5.11375 3.67550781 5.11375 3.67550781 6.25 4.4921875 C6.8275 4.98976563 7.405 5.48734375 8 6 C8 6.66 8 7.32 8 8 C4.65902615 7.40339753 2.45699871 6.36924875 0 4 C0 2.68 0 1.36 0 0 Z "/><path data-cppathid="10077" transform="translate(210,207)" fill="#DF2A36" d="M0 0 C0.33 0 0.66 0 1 0 C1.33 2.64 1.66 5.28 2 8 C0.35 8.66 -1.3 9.32 -3 10 C-3 6.13304322 -1.58090029 3.4911548 0 0 Z "/><path data-cppathid="10078" transform="translate(308,103)" fill="#DF343C" d="M0 0 C4.21912747 0.4794463 6.79663178 1.16625119 10 4 C7.36 4.33 4.72 4.66 2 5 C1.67 4.34 1.34 3.68 1 3 C1.33 2.34 1.66 1.68 2 1 C1.34 0.67 0.68 0.34 0 0 Z "/><path data-cppathid="10079" transform="translate(292,54)" fill="#DF343E" d="M0 0 C1.41377341 2.63904371 2.37240135 5.07120629 3 8 C2.01 8.66 1.02 9.32 0 10 C-1.25664978 7.09399739 -2 5.20395416 -2 2 C-1.34 2 -0.68 2 0 2 C0 1.34 0 0.68 0 0 Z "/><path data-cppathid="10080" transform="translate(364,94)" fill="#DD3841" d="M0 0 C-0.33 0.99 -0.66 1.98 -1 3 C-5.455 3.495 -5.455 3.495 -10 4 C-8 1 -8 1 -6.125 0.3125 C-4 0 -4 0 0 0 Z "/><path data-cppathid="10081" transform="translate(233,82)" fill="#E1474E" d="M0 0 C0.33 0 0.66 0 1 0 C1 4.62 1 9.24 1 14 C-0.65 13.67 -2.3 13.34 -4 13 C-3.27876953 12.41798828 -3.27876953 12.41798828 -2.54296875 11.82421875 C-0.54250502 9.45911353 -0.51123932 7.87308547 -0.3125 4.8125 C-0.21388672 3.46091797 -0.21388672 3.46091797 -0.11328125 2.08203125 C-0.05720703 1.05142578 -0.05720703 1.05142578 0 0 Z "/><path data-cppathid="10082" transform="translate(337,88)" fill="#F8E8E6" d="M0 0 C1.43088528 2.86177057 0.59991697 4.93375773 0 8 C-1.65 8.33 -3.3 8.66 -5 9 C-3.7508258 5.54074837 -2.32472205 2.85306797 0 0 Z "/><path data-cppathid="10083" transform="translate(345,66)" fill="#F7DBD8" d="M0 0 C0.33 0 0.66 0 1 0 C1 3.3 1 6.6 1 10 C3.64 10 6.28 10 9 10 C9 10.33 9 10.66 9 11 C5.7 11.33 2.4 11.66 -1 12 C-0.67 8.04 -0.34 4.08 0 0 Z "/><path data-cppathid="10084" transform="translate(200,56)" fill="#DE202B" d="M0 0 C0.99 0 1.98 0 3 0 C3 2.97 3 5.94 3 9 C2.34 9 1.68 9 1 9 C0.67 6.03 0.34 3.06 0 0 Z "/><path data-cppathid="10085" transform="translate(329,272)" fill="#F6E2E2" d="M0 0 C0.66 1.32 1.32 2.64 2 4 C0.68 4.33 -0.64 4.66 -2 5 C-1.67 6.32 -1.34 7.64 -1 9 C-2.65 9 -4.3 9 -6 9 C-4.02 6.03 -2.04 3.06 0 0 Z "/><path data-cppathid="10086" transform="translate(268,232)" fill="#DF2833" d="M0 0 C0.99 0 1.98 0 3 0 C3 3.3 3 6.6 3 10 C2.01 9.34 1.02 8.68 0 8 C-0.40843923 5.28796348 -0.13336867 2.7562858 0 0 Z "/><path data-cppathid="10087" transform="translate(252,210)" fill="#DD232E" d="M0 0 C1.9375 0.25 1.9375 0.25 4 1 C4.66 1.99 5.32 2.98 6 4 C5.01 4.66 4.02 5.32 3 6 C3 5.01 3 4.02 3 3 C2.34 3 1.68 3 1 3 C0.67 3.99 0.34 4.98 0 6 C-0.38218767 4.34385343 -0.71395102 2.67542976 -1 1 C-0.67 0.67 -0.34 0.34 0 0 Z "/><path data-cppathid="10088" transform="translate(305,105)" fill="#DF313A" d="M0 0 C-0.3125 3.375 -0.3125 3.375 -1 7 C-1.99 7.66 -2.98 8.32 -4 9 C-3.95875 8.21625 -3.9175 7.4325 -3.875 6.625 C-3.71271266 3.83883881 -3.71271266 3.83883881 -6 2 C-2.25 0 -2.25 0 0 0 Z "/><path data-cppathid="10089" transform="translate(313,42)" fill="#DE2E39" d="M0 0 C1.96713413 2.95070119 2.65358161 4.53581611 3 8 C2.01 9.485 2.01 9.485 1 11 C-1.03684712 6.92630576 -1.0257259 4.41062136 0 0 Z "/><path data-cppathid="10090" transform="translate(249,282)" fill="#F7D3D5" d="M0 0 C0.66 0.99 1.32 1.98 2 3 C0.35 5.64 -1.3 8.28 -3 11 C-4 7 -4 7 -3.22265625 5.078125 C-1.61132812 2.5390625 -1.61132812 2.5390625 0 0 Z "/><path data-cppathid="10091" transform="translate(257,252)" fill="#F8F1F0" d="M0 0 C3.317124 4.422832 3.30466674 5.71910976 3 11 C2.01 11.495 2.01 11.495 1 12 C0.67 8.04 0.34 4.08 0 0 Z "/><path data-cppathid="10092" transform="translate(272,224)" fill="#DB262C" d="M0 0 C0.66 0.33 1.32 0.66 2 1 C2 3.31 2 5.62 2 8 C2.66 8 3.32 8 4 8 C3.34 9.32 2.68 10.64 2 12 C0.1152995 8.73318581 -0.59314612 5.74305571 -1 2 C-0.67 1.34 -0.34 0.68 0 0 Z "/><path data-cppathid="10093" transform="translate(237,159)" fill="#D61A23" d="M0 0 C0.66 0.66 1.32 1.32 2 2 C1.625 4.625 1.625 4.625 1 7 C-0.32 6.67 -1.64 6.34 -3 6 C-2.42655063 3.13275314 -2.1385485 2.1385485 0 0 Z "/><path data-cppathid="10094" transform="translate(260.1875,143.9375)" fill="#F7E9EA" d="M0 0 C1.8871875 0.0309375 1.8871875 0.0309375 3.8125 0.0625 C0.77724514 2.08600324 -0.38176202 2.38374018 -3.875 2.6875 C-4.68324219 2.76226562 -5.49148437 2.83703125 -6.32421875 2.9140625 C-6.93910156 2.96304688 -7.55398437 3.01203125 -8.1875 3.0625 C-6.45706736 -0.39836529 -3.47359009 -0.0569441 0 0 Z "/><path data-cppathid="10095" transform="translate(279,136)" fill="#F9F5F1" d="M0 0 C-1.49097658 3.7952131 -3.75700849 5.61042731 -7 8 C-7.66 7.34 -8.32 6.68 -9 6 C-7.8803014 4.99406757 -6.7540588 3.9954151 -5.625 3 C-4.68527344 2.1646875 -4.68527344 2.1646875 -3.7265625 1.3125 C-2 0 -2 0 0 0 Z "/><path data-cppathid="10096" transform="translate(257,129)" fill="#FAF3F3" d="M0 0 C2.99332739 0.9977758 3.94766315 1.7522025 6 4 C3.36 4 0.72 4 -2 4 C-2 3.01 -2 2.02 -2 1 C-1.34 0.67 -0.68 0.34 0 0 Z "/><path data-cppathid="10097" transform="translate(285,316)" fill="#DE2930" d="M0 0 C1.65 0 3.3 0 5 0 C3.25 3.875 3.25 3.875 1 5 C0.34 4.67 -0.32 4.34 -1 4 C-0.67 2.68 -0.34 1.36 0 0 Z "/><path data-cppathid="10098" transform="translate(231,162)" fill="#F7E3E1" d="M0 0 C0.66 0 1.32 0 2 0 C0.8141763 3.37503669 -0.27573689 5.64722731 -3 8 C-3.66 7.34 -4.32 6.68 -5 6 C-3.38405168 3.95880212 -1.7143618 1.95927063 0 0 Z "/><path data-cppathid="10099" transform="translate(321,114)" fill="#F7E3DF" d="M0 0 C2.5 1.375 2.5 1.375 5 3 C5 3.66 5 4.32 5 5 C0.545 4.01 0.545 4.01 -4 3 C-2.68 2.67 -1.36 2.34 0 2 C0 1.34 0 0.68 0 0 Z "/><path data-cppathid="10100" transform="translate(312,103)" fill="#DB161F" d="M0 0 C2.97 0 5.94 0 9 0 C9 0.99 9 1.98 9 3 C2.25 2.25 2.25 2.25 0 0 Z "/><path data-cppathid="10101" transform="translate(340,80)" fill="#E1454B" d="M0 0 C0.66 1.32 1.32 2.64 2 4 C0.35 5.32 -1.3 6.64 -3 8 C-3.66 7.34 -4.32 6.68 -5 6 C-3.35 4.02 -1.7 2.04 0 0 Z "/><path data-cppathid="10102" transform="translate(210,82)" fill="#F9EDEC" d="M0 0 C3.37503669 1.1858237 5.64722731 2.27573689 8 5 C6 6 6 6 3.4375 5.3125 C1 4 1 4 0.1875 1.875 C0.125625 1.25625 0.06375 0.6375 0 0 Z "/><path data-cppathid="10103" transform="translate(329,83)" fill="#DE323C" d="M0 0 C0.99 0.33 1.98 0.66 3 1 C4.1875 3.5625 4.1875 3.5625 5 6 C4.01 6.99 3.02 7.98 2 9 C1.34 6.03 0.68 3.06 0 0 Z "/><path data-cppathid="10104" transform="translate(357,78)" fill="#E03C49" d="M0 0 C3.01305957 0.38878188 4.39685311 1.26456874 7 3 C7 3.66 7 4.32 7 5 C3.85262818 4.30058404 0.97411124 3.23921302 -2 2 C-1.34 1.34 -0.68 0.68 0 0 Z "/><path data-cppathid="10105" transform="translate(233,56)" fill="#F9EDEA" d="M0 0 C1.13643966 3.40931897 0.86747764 4.00335456 -0.4375 7.1875 C-0.86869141 8.26064453 -0.86869141 8.26064453 -1.30859375 9.35546875 C-1.53675781 9.89816406 -1.76492187 10.44085938 -2 11 C-2.33 11 -2.66 11 -3 11 C-3.36923077 4.6 -3.36923077 4.6 -1.5 1.5625 C-1.005 1.046875 -0.51 0.53125 0 0 Z "/><path data-cppathid="10106" transform="translate(277.5625,323.9375)" fill="#E04047" d="M0 0 C1.2065625 0.0309375 1.2065625 0.0309375 2.4375 0.0625 C2.4375 0.7225 2.4375 1.3825 2.4375 2.0625 C-0.9644487 4.15600689 -3.61522412 4.24192163 -7.5625 4.0625 C-6.923125 3.588125 -6.28375 3.11375 -5.625 2.625 C-2.23185484 0.05443548 -2.23185484 0.05443548 0 0 Z "/><path data-cppathid="10107" transform="translate(212,187)" fill="#DE2D38" d="M0 0 C1.32 0.33 2.64 0.66 4 1 C1.525 4.465 1.525 4.465 -1 8 C-1.33 6.68 -1.66 5.36 -2 4 C-1.34 4 -0.68 4 0 4 C0 2.68 0 1.36 0 0 Z "/><path data-cppathid="10108" transform="translate(215.1875,129.9375)" fill="#DD1520" d="M0 0 C1.8871875 0.0309375 1.8871875 0.0309375 3.8125 0.0625 C3.8125 0.3925 3.8125 0.7225 3.8125 1.0625 C1.8325 1.0625 -0.1475 1.0625 -2.1875 1.0625 C-2.1875 2.0525 -2.1875 3.0425 -2.1875 4.0625 C-2.8475 4.0625 -3.5075 4.0625 -4.1875 4.0625 C-4.1875 3.4025 -4.1875 2.7425 -4.1875 2.0625 C-5.8375 2.3925 -7.4875 2.7225 -9.1875 3.0625 C-6.30623588 0.18123588 -3.90053134 -0.06394314 0 0 Z "/><path data-cppathid="10109" transform="translate(237,80)" fill="#D91B21" d="M0 0 C0.66 0 1.32 0 2 0 C2.84454356 3.37817425 3.10844919 5.67465243 2 9 C1.34 8.67 0.68 8.34 0 8 C0 5.36 0 2.72 0 0 Z "/><path data-cppathid="10110" transform="translate(232,243)" fill="#F8D2D0" d="M0 0 C0.33 0 0.66 0 1 0 C1.125 6.75 1.125 6.75 0 9 C-0.66 9 -1.32 9 -2 9 C-1.125 1.125 -1.125 1.125 0 0 Z "/><path data-cppathid="10111" transform="translate(241,186)" fill="#DF2832" d="M0 0 C1.98 1.65 3.96 3.3 6 5 C5.34 5.66 4.68 6.32 4 7 C1 5 1 5 -1 2 C-0.67 1.34 -0.34 0.68 0 0 Z "/><path data-cppathid="10112" transform="translate(341,76)" fill="#E2333C" d="M0 0 C2.475 0.99 2.475 0.99 5 2 C3.625 4.5 3.625 4.5 2 7 C1.34 7 0.68 7 0 7 C0 4.69 0 2.38 0 0 Z "/><path data-cppathid="10113" transform="translate(236,62)" fill="#F7E4E4" d="M0 0 C0.99 0.66 1.98 1.32 3 2 C2.67 3.32 2.34 4.64 2 6 C0.68 6.33 -0.64 6.66 -2 7 C-1.34 4.69 -0.68 2.38 0 0 Z "/><path data-cppathid="10114" transform="translate(341,61)" fill="#E7606A" d="M0 0 C0.99 0.33 1.98 0.66 3 1 C2.67 4.96 2.34 8.92 2 13 C1.67 13 1.34 13 1 13 C0.67 8.71 0.34 4.42 0 0 Z "/><path data-cppathid="10115" transform="translate(222,58)" fill="#FBECEB" d="M0 0 C2.31 1.98 4.62 3.96 7 6 C6.67 6.99 6.34 7.98 6 9 C3.69 6.69 1.38 4.38 -1 2 C-0.67 1.34 -0.34 0.68 0 0 Z "/><path data-cppathid="10116" transform="translate(320,52)" fill="#F7F2F2" d="M0 0 C0.99 0.99 1.98 1.98 3 3 C-0.37097383 4.49821059 -2.20442119 5 -6 5 C-6 4.34 -6 3.68 -6 3 C-4.02 2.67 -2.04 2.34 0 2 C0 1.34 0 0.68 0 0 Z "/><path data-cppathid="10117" transform="translate(234,241)" fill="#DB2936" d="M0 0 C1.0625 1.8125 1.0625 1.8125 2 4 C1.67 4.99 1.34 5.98 1 7 C0.65179959 8.66362417 0.31595508 10.32995171 0 12 C-0.33 12 -0.66 12 -1 12 C-1.02712066 10.56260487 -1.04645067 9.12506137 -1.0625 7.6875 C-1.07410156 6.88699219 -1.08570313 6.08648437 -1.09765625 5.26171875 C-1 3 -1 3 0 0 Z "/><path data-cppathid="10118" transform="translate(269,217)" fill="#DD2831" d="M0 0 C1.5 1.3125 1.5 1.3125 3 3 C3 3.99 3 4.98 3 6 C2.01 6.33 1.02 6.66 0 7 C-0.66 5.35 -1.32 3.7 -2 2 C-1.34 2 -0.68 2 0 2 C0 1.34 0 0.68 0 0 Z "/><path data-cppathid="10119" transform="translate(207,213)" fill="#F6E7E4" d="M0 0 C-1.0975223 2.99324263 -1.67682892 3.84610901 -4.625 5.25 C-5.40875 5.4975 -6.1925 5.745 -7 6 C-5.81636731 2.44910192 -3.99368042 0 0 0 Z "/><path data-cppathid="10120" transform="translate(251,198)" fill="#DC2C33" d="M0 0 C0.33 0.66 0.66 1.32 1 2 C1.66 2 2.32 2 3 2 C3 3.98 3 5.96 3 8 C1.68 7.34 0.36 6.68 -1 6 C-0.67 4.02 -0.34 2.04 0 0 Z "/><path data-cppathid="10121" transform="translate(232,174)" fill="#DD2C35" d="M0 0 C1.98 0 3.96 0 6 0 C5.67 0.66 5.34 1.32 5 2 C5.99 2.99 6.98 3.98 8 5 C5 5 5 5 2.3125 2.5 C1.549375 1.675 0.78625 0.85 0 0 Z "/><path data-cppathid="10122" transform="translate(233,163)" fill="#DA2B35" d="M0 0 C0.99 0.33 1.98 0.66 3 1 C1.02 1.99 1.02 1.99 -1 3 C-1 3.66 -1 4.32 -1 5 C0.32 4.67 1.64 4.34 3 4 C3 4.66 3 5.32 3 6 C1.35 6 -0.3 6 -2 6 C-2.33 5.34 -2.66 4.68 -3 4 C-2.01 2.68 -1.02 1.36 0 0 Z "/><path data-cppathid="10123" transform="translate(268,148)" fill="#D8252F" d="M0 0 C0.99 0.33 1.98 0.66 3 1 C3 1.99 3 2.98 3 4 C2.01 4.495 2.01 4.495 1 5 C-0.13350534 7.01669827 -0.13350534 7.01669827 -1 9 C-1.125 2.25 -1.125 2.25 0 0 Z "/><path data-cppathid="10124" transform="translate(201,148)" fill="#DC2F37" d="M0 0 C1.98 0 3.96 0 6 0 C6.33 1.32 6.66 2.64 7 4 C4.97954558 3.39816251 2.97888961 2.72693904 1 2 C0.67 1.34 0.34 0.68 0 0 Z "/><path data-cppathid="10125" transform="translate(287,115)" fill="#F7D8D5" d="M0 0 C0.33 0.66 0.66 1.32 1 2 C1.66 2.33 2.32 2.66 3 3 C2.34 4.65 1.68 6.3 1 8 C0.01 8 -0.98 8 -2 8 C-1.34 5.36 -0.68 2.72 0 0 Z "/><path data-cppathid="10126" transform="translate(279,110)" fill="#F7E6E6" d="M0 0 C0.33 0.66 0.66 1.32 1 2 C0.0625 4.625 0.0625 4.625 -1 7 C-2.5 5.625 -2.5 5.625 -4 4 C-4 3.34 -4 2.68 -4 2 C-2.68 1.34 -1.36 0.68 0 0 Z "/><path data-cppathid="10127" transform="translate(357,98)" fill="#F9E9E8" d="M0 0 C0.66 0.33 1.32 0.66 2 1 C-0.84936103 4.00765886 -3.23511958 6.27845212 -7 8 C-6.02133662 6.85373678 -5.04205413 5.70800212 -4.0625 4.5625 C-3.51722656 3.92441406 -2.97195313 3.28632812 -2.41015625 2.62890625 C-1.63204305 1.73008851 -0.84063472 0.84063472 0 0 Z "/><path data-cppathid="10128" transform="translate(354,93)" fill="#F8E7E4" d="M0 0 C2.97 0.495 2.97 0.495 6 1 C5.13375 1.4021875 5.13375 1.4021875 4.25 1.8125 C1.9674132 3.01719859 0.0262058 4.40798115 -2 6 C-2 3 -2 3 0 0 Z "/><path data-cppathid="10129" transform="translate(318,287)" fill="#FAEAE9" d="M0 0 C2 3 2 3 2 5 C0.02 5.33 -1.96 5.66 -4 6 C-2.68 4.02 -1.36 2.04 0 0 Z "/><path data-cppathid="10130" transform="translate(266,152)" fill="#F5CBCB" d="M0 0 C0.33 0 0.66 0 1 0 C1.38909985 1.45463481 1.76088029 2.91391207 2.125 4.375 C2.33382813 5.18710938 2.54265625 5.99921875 2.7578125 6.8359375 C2.83773438 7.55007812 2.91765625 8.26421875 3 9 C2.34 9.66 1.68 10.32 1 11 C-0.62950412 6.87831311 -1.26264601 4.29299643 0 0 Z "/><path data-cppathid="10131" transform="translate(252.6875,146.375)" fill="#F6CBCC" d="M0 0 C0.763125 0.20625 1.52625 0.4125 2.3125 0.625 C1.9825 1.285 1.6525 1.945 1.3125 2.625 C-1.125 3.375 -1.125 3.375 -3.6875 3.625 C-4.3475 2.965 -5.0075 2.305 -5.6875 1.625 C-2.6875 -0.375 -2.6875 -0.375 0 0 Z "/><path data-cppathid="10132" transform="translate(274,122)" fill="#DD2833" d="M0 0 C0.33 0 0.66 0 1 0 C1 2.31 1 4.62 1 7 C-0.65 6.67 -2.3 6.34 -4 6 C-2.69593116 3.98079663 -1.36176581 1.98075027 0 0 Z "/><path data-cppathid="10133" transform="translate(298,108)" fill="#DD2730" d="M0 0 C0.66 0.66 1.32 1.32 2 2 C1.34 4.31 0.68 6.62 0 9 C-1.20628008 6.66785852 -2.1654738 4.50357861 -3 2 C-2.01 1.34 -1.02 0.68 0 0 Z "/><path data-cppathid="10134" transform="translate(299,108)" fill="#D8171E" d="M0 0 C0.99 0.33 1.98 0.66 3 1 C2.34 3.31 1.68 5.62 1 8 C0.34 7.67 -0.32 7.34 -1 7 C-0.67 4.69 -0.34 2.38 0 0 Z "/><path data-cppathid="10135" transform="translate(346,105)" fill="#DC242D" d="M0 0 C0.99 0 1.98 0 3 0 C3 0.66 3 1.32 3 2 C4.65 2.33 6.3 2.66 8 3 C7.67 3.99 7.34 4.98 7 6 C5.83054208 5.19152271 4.66449539 4.37810888 3.5 3.5625 C2.8503125 3.11003906 2.200625 2.65757813 1.53125 2.19140625 C1.0259375 1.79824219 0.520625 1.40507813 0 1 C0 0.67 0 0.34 0 0 Z "/><path data-cppathid="10136" transform="translate(330,41)" fill="#F4F3F1" d="M0 0 C0.66 0 1.32 0 2 0 C2.625 1.875 2.625 1.875 3 4 C2.34 4.66 1.68 5.32 1 6 C0.01 5.67 -0.98 5.34 -2 5 C-1.34 3.35 -0.68 1.7 0 0 Z "/></svg>